# MagicaVoxel @ Ephtracy

# group
o 

# material
mtllib Pingvin-0.mtl
usemtl palette

# normals
vn -1 0 0
vn 1 0 0
vn 0 0 1
vn 0 0 -1
vn 0 -1 0
vn 0 1 0

# texcoords
vt 0.173828 0.5
vt 0.763672 0.5
vt 0.916016 0.5
vt 0.994141 0.5

# verts
v -0.9 1.2 -0.3
v -0.9 1.2 -0.9
v -0.9 1.5 -0.4
v -0.9 1.5 -0.5
v -0.9 1.5 -0.6
v -0.9 1.6 -0.4
v -0.9 1.6 -0.5
v -0.9 1.6 -0.6
v -0.9 1.8 -0.3
v -0.9 1.8 -0.9
v -0.7 1.3 -0.1
v -0.7 1.3 -0.3
v -0.7 1.5 -0.1
v -0.7 1.5 -0.3
v -0.5 1.3 -0.1
v -0.5 1.3 -0.3
v -0.5 1.5 -0.1
v -0.5 1.5 -0.3
v -0.3 1.2 -0.3
v -0.3 1.2 -0.9
v -0.3 1.5 -0.4
v -0.3 1.5 -0.5
v -0.3 1.5 -0.6
v -0.3 1.6 -0.4
v -0.3 1.6 -0.5
v -0.3 1.6 -0.6
v -0.3 1.8 -0.3
v -0.3 1.8 -0.9
v -0.7 1.3 -0.1
v -0.7 1.5 -0.1
v -0.5 1.3 -0.1
v -0.5 1.5 -0.1
v -0.9 1.2 -0.3
v -0.9 1.8 -0.3
v -0.7 1.3 -0.3
v -0.7 1.5 -0.3
v -0.5 1.3 -0.3
v -0.5 1.5 -0.3
v -0.3 1.2 -0.3
v -0.3 1.8 -0.3
v -0.9 1.2 -0.9
v -0.9 1.8 -0.9
v -0.3 1.2 -0.9
v -0.3 1.8 -0.9
v -0.9 1.2 -0.3
v -0.3 1.2 -0.3
v -0.9 1.2 -0.9
v -0.3 1.2 -0.9
v -0.7 1.3 -0.1
v -0.5 1.3 -0.1
v -0.7 1.3 -0.3
v -0.5 1.3 -0.3
v -0.7 1.5 -0.1
v -0.5 1.5 -0.1
v -0.7 1.5 -0.3
v -0.5 1.5 -0.3
v -0.9 1.8 -0.3
v -0.3 1.8 -0.3
v -0.9 1.8 -0.9
v -0.3 1.8 -0.9

# faces
f 3/2/1 2/2/1 1/2/1
f 4/2/1 2/2/1 3/2/1
f 5/2/1 2/2/1 4/2/1
f 6/2/1 3/2/1 1/2/1
f 6/3/1 4/3/1 3/3/1
f 7/4/1 5/4/1 4/4/1
f 7/3/1 4/3/1 6/3/1
f 8/2/1 2/2/1 5/2/1
f 8/4/1 5/4/1 7/4/1
f 9/2/1 7/2/1 6/2/1
f 9/2/1 6/2/1 1/2/1
f 9/2/1 8/2/1 7/2/1
f 10/2/1 2/2/1 8/2/1
f 10/2/1 8/2/1 9/2/1
f 13/1/1 12/1/1 11/1/1
f 14/1/1 12/1/1 13/1/1
f 15/1/2 16/1/2 17/1/2
f 17/1/2 16/1/2 18/1/2
f 19/2/2 20/2/2 21/2/2
f 21/2/2 20/2/2 22/2/2
f 22/2/2 20/2/2 23/2/2
f 19/2/2 21/2/2 24/2/2
f 21/3/2 22/3/2 24/3/2
f 22/4/2 23/4/2 25/4/2
f 24/3/2 22/3/2 25/3/2
f 23/2/2 20/2/2 26/2/2
f 25/4/2 23/4/2 26/4/2
f 24/2/2 25/2/2 27/2/2
f 19/2/2 24/2/2 27/2/2
f 25/2/2 26/2/2 27/2/2
f 26/2/2 20/2/2 28/2/2
f 27/2/2 26/2/2 28/2/2
f 31/1/3 30/1/3 29/1/3
f 32/1/3 30/1/3 31/1/3
f 35/2/3 34/2/3 33/2/3
f 36/2/3 34/2/3 35/2/3
f 37/2/3 35/2/3 33/2/3
f 38/2/3 34/2/3 36/2/3
f 39/2/3 37/2/3 33/2/3
f 39/2/3 38/2/3 37/2/3
f 40/2/3 34/2/3 38/2/3
f 40/2/3 38/2/3 39/2/3
f 41/2/4 42/2/4 43/2/4
f 43/2/4 42/2/4 44/2/4
f 47/2/5 46/2/5 45/2/5
f 48/2/5 46/2/5 47/2/5
f 51/1/5 50/1/5 49/1/5
f 52/1/5 50/1/5 51/1/5
f 53/1/6 54/1/6 55/1/6
f 55/1/6 54/1/6 56/1/6
f 57/2/6 58/2/6 59/2/6
f 59/2/6 58/2/6 60/2/6
