# MagicaVoxel @ Ephtracy

# group
o 

# material
mtllib bush-1.mtl
usemtl palette

# normals
vn -1 0 0
vn 1 0 0
vn 0 0 1
vn 0 0 -1
vn 0 -1 0
vn 0 1 0

# texcoords
vt 0.0644531 0.5
vt 0.244141 0.5
vt 0.583984 0.5

# verts
v -3.6 0.3 -2.5
v -3.6 0.3 -3.1
v -3.6 0.4 -2.9
v -3.6 0.4 -3
v -3.6 0.5 -2.9
v -3.6 0.5 -3
v -3.6 0.6 -2.7
v -3.6 0.6 -2.8
v -3.6 0.7 -2.7
v -3.6 0.7 -2.8
v -3.6 0.8 -2.6
v -3.6 0.8 -2.7
v -3.6 0.8 -2.9
v -3.6 0.8 -3
v -3.6 0.9 -2.6
v -3.6 0.9 -2.7
v -3.6 0.9 -2.9
v -3.6 0.9 -3
v -3.6 1 -2.5
v -3.6 1 -3.1
v -3.4 0.2 -2.7
v -3.4 0.2 -2.9
v -3.4 0.3 -2.7
v -3.4 0.3 -2.9
v -3.3 0 -2.7
v -3.3 0 -2.9
v -3.3 0.2 -2.7
v -3.3 0.2 -2.9
v -3.2 0.2 -2.7
v -3.2 0.2 -2.9
v -3.2 0.3 -2.7
v -3.2 0.3 -2.9
v -3.1 0 -2.7
v -3.1 0 -2.9
v -3.1 0.2 -2.7
v -3.1 0.2 -2.9
v -2.9 0.3 -2.5
v -2.9 0.3 -3.1
v -2.9 0.4 -2.6
v -2.9 0.4 -2.7
v -2.9 0.5 -2.6
v -2.9 0.5 -2.7
v -2.9 0.5 -2.8
v -2.9 0.5 -2.9
v -2.9 0.6 -2.8
v -2.9 0.6 -2.9
v -2.9 0.8 -2.7
v -2.9 0.8 -2.8
v -2.9 0.9 -2.7
v -2.9 0.9 -2.8
v -2.9 1 -2.5
v -2.9 1 -3.1
v -3.6 0.3 -2.5
v -3.6 1 -2.5
v -3.5 0.4 -2.5
v -3.5 0.5 -2.5
v -3.4 0.4 -2.5
v -3.4 0.5 -2.5
v -3.4 0.7 -2.5
v -3.4 0.8 -2.5
v -3.3 0.7 -2.5
v -3.3 0.8 -2.5
v -3.2 0.4 -2.5
v -3.2 0.5 -2.5
v -3.1 0.4 -2.5
v -3.1 0.5 -2.5
v -3.1 0.8 -2.5
v -3.1 0.9 -2.5
v -3 0.8 -2.5
v -3 0.9 -2.5
v -2.9 0.3 -2.5
v -2.9 1 -2.5
v -3.4 0.2 -2.7
v -3.4 0.3 -2.7
v -3.3 0 -2.7
v -3.3 0.2 -2.7
v -3.2 0.2 -2.7
v -3.2 0.3 -2.7
v -3.1 0 -2.7
v -3.1 0.2 -2.7
v -3.4 0.2 -2.9
v -3.4 0.3 -2.9
v -3.3 0 -2.9
v -3.3 0.2 -2.9
v -3.2 0.2 -2.9
v -3.2 0.3 -2.9
v -3.1 0 -2.9
v -3.1 0.2 -2.9
v -3.6 0.3 -3.1
v -3.6 1 -3.1
v -3.5 0.4 -3.1
v -3.5 0.5 -3.1
v -3.5 0.7 -3.1
v -3.5 0.8 -3.1
v -3.4 0.4 -3.1
v -3.4 0.5 -3.1
v -3.4 0.7 -3.1
v -3.4 0.8 -3.1
v -3.2 0.5 -3.1
v -3.2 0.6 -3.1
v -3.1 0.5 -3.1
v -3.1 0.6 -3.1
v -3.1 0.8 -3.1
v -3.1 0.9 -3.1
v -3 0.8 -3.1
v -3 0.9 -3.1
v -2.9 0.3 -3.1
v -2.9 1 -3.1
v -3.3 0 -2.7
v -3.1 0 -2.7
v -3.3 0 -2.9
v -3.1 0 -2.9
v -3.4 0.2 -2.7
v -3.3 0.2 -2.7
v -3.4 0.2 -2.9
v -3.3 0.2 -2.9
v -3.6 0.3 -2.5
v -2.9 0.3 -2.5
v -3.4 0.3 -2.7
v -3.2 0.3 -2.7
v -3.4 0.3 -2.9
v -3.2 0.3 -2.9
v -3.6 0.3 -3.1
v -2.9 0.3 -3.1
v -3.2 0.2 -2.7
v -3.1 0.2 -2.7
v -3.2 0.2 -2.9
v -3.1 0.2 -2.9
v -3.6 1 -2.5
v -2.9 1 -2.5
v -3.2 1 -2.6
v -3.1 1 -2.6
v -3.2 1 -2.7
v -3.1 1 -2.7
v -3.4 1 -2.9
v -3.3 1 -2.9
v -3.4 1 -3
v -3.3 1 -3
v -3.6 1 -3.1
v -2.9 1 -3.1

# faces
f 3/3/1 2/3/1 1/3/1
f 4/3/1 2/3/1 3/3/1
f 5/3/1 3/3/1 1/3/1
f 5/1/1 4/1/1 3/1/1
f 6/3/1 2/3/1 4/3/1
f 6/1/1 4/1/1 5/1/1
f 7/3/1 5/3/1 1/3/1
f 7/3/1 6/3/1 5/3/1
f 8/3/1 6/3/1 7/3/1
f 9/3/1 7/3/1 1/3/1
f 9/1/1 8/1/1 7/1/1
f 10/3/1 6/3/1 8/3/1
f 10/1/1 8/1/1 9/1/1
f 11/3/1 9/3/1 1/3/1
f 11/3/1 10/3/1 9/3/1
f 12/3/1 10/3/1 11/3/1
f 13/3/1 6/3/1 10/3/1
f 13/3/1 10/3/1 12/3/1
f 14/3/1 2/3/1 6/3/1
f 14/3/1 6/3/1 13/3/1
f 15/1/1 12/1/1 11/1/1
f 15/3/1 11/3/1 1/3/1
f 16/3/1 13/3/1 12/3/1
f 16/1/1 12/1/1 15/1/1
f 17/1/1 14/1/1 13/1/1
f 17/3/1 13/3/1 16/3/1
f 18/3/1 2/3/1 14/3/1
f 18/1/1 14/1/1 17/1/1
f 19/3/1 15/3/1 1/3/1
f 19/3/1 17/3/1 16/3/1
f 19/3/1 18/3/1 17/3/1
f 19/3/1 16/3/1 15/3/1
f 20/3/1 2/3/1 18/3/1
f 20/3/1 18/3/1 19/3/1
f 23/2/1 22/2/1 21/2/1
f 24/2/1 22/2/1 23/2/1
f 27/2/1 26/2/1 25/2/1
f 28/2/1 26/2/1 27/2/1
f 29/2/2 30/2/2 31/2/2
f 31/2/2 30/2/2 32/2/2
f 33/2/2 34/2/2 35/2/2
f 35/2/2 34/2/2 36/2/2
f 37/3/2 38/3/2 39/3/2
f 39/3/2 38/3/2 40/3/2
f 37/3/2 39/3/2 41/3/2
f 39/1/2 40/1/2 41/1/2
f 40/3/2 38/3/2 42/3/2
f 41/1/2 40/1/2 42/1/2
f 42/3/2 38/3/2 43/3/2
f 43/3/2 38/3/2 44/3/2
f 41/3/2 42/3/2 45/3/2
f 42/3/2 43/3/2 45/3/2
f 43/1/2 44/1/2 45/1/2
f 44/3/2 38/3/2 46/3/2
f 45/1/2 44/1/2 46/1/2
f 41/3/2 45/3/2 47/3/2
f 45/3/2 46/3/2 47/3/2
f 47/3/2 46/3/2 48/3/2
f 41/3/2 47/3/2 49/3/2
f 47/1/2 48/1/2 49/1/2
f 48/3/2 46/3/2 50/3/2
f 49/1/2 48/1/2 50/1/2
f 37/3/2 41/3/2 51/3/2
f 41/3/2 49/3/2 51/3/2
f 49/3/2 50/3/2 51/3/2
f 50/3/2 46/3/2 52/3/2
f 51/3/2 50/3/2 52/3/2
f 46/3/2 38/3/2 52/3/2
f 55/3/3 54/3/3 53/3/3
f 56/3/3 54/3/3 55/3/3
f 57/3/3 55/3/3 53/3/3
f 57/1/3 56/1/3 55/1/3
f 58/3/3 54/3/3 56/3/3
f 58/1/3 56/1/3 57/1/3
f 59/3/3 54/3/3 58/3/3
f 60/3/3 54/3/3 59/3/3
f 61/3/3 58/3/3 57/3/3
f 61/3/3 59/3/3 58/3/3
f 61/1/3 60/1/3 59/1/3
f 62/3/3 54/3/3 60/3/3
f 62/1/3 60/1/3 61/1/3
f 63/3/3 57/3/3 53/3/3
f 63/3/3 61/3/3 57/3/3
f 63/3/3 62/3/3 61/3/3
f 64/3/3 62/3/3 63/3/3
f 65/3/3 63/3/3 53/3/3
f 65/1/3 64/1/3 63/1/3
f 66/3/3 62/3/3 64/3/3
f 66/1/3 64/1/3 65/1/3
f 67/3/3 54/3/3 62/3/3
f 67/3/3 62/3/3 66/3/3
f 68/3/3 54/3/3 67/3/3
f 69/3/3 66/3/3 65/3/3
f 69/3/3 67/3/3 66/3/3
f 69/1/3 68/1/3 67/1/3
f 70/3/3 54/3/3 68/3/3
f 70/1/3 68/1/3 69/1/3
f 71/3/3 69/3/3 65/3/3
f 71/3/3 65/3/3 53/3/3
f 71/3/3 70/3/3 69/3/3
f 72/3/3 54/3/3 70/3/3
f 72/3/3 70/3/3 71/3/3
f 76/2/3 74/2/3 73/2/3
f 77/2/3 74/2/3 76/2/3
f 77/2/3 76/2/3 75/2/3
f 78/2/3 74/2/3 77/2/3
f 79/2/3 77/2/3 75/2/3
f 80/2/3 77/2/3 79/2/3
f 81/2/4 82/2/4 84/2/4
f 84/2/4 82/2/4 85/2/4
f 83/2/4 84/2/4 85/2/4
f 85/2/4 82/2/4 86/2/4
f 83/2/4 85/2/4 87/2/4
f 87/2/4 85/2/4 88/2/4
f 89/3/4 90/3/4 91/3/4
f 91/3/4 90/3/4 92/3/4
f 92/3/4 90/3/4 93/3/4
f 93/3/4 90/3/4 94/3/4
f 89/3/4 91/3/4 95/3/4
f 91/1/4 92/1/4 95/1/4
f 92/3/4 93/3/4 96/3/4
f 95/1/4 92/1/4 96/1/4
f 93/1/4 94/1/4 97/1/4
f 96/3/4 93/3/4 97/3/4
f 94/3/4 90/3/4 98/3/4
f 97/1/4 94/1/4 98/1/4
f 96/3/4 97/3/4 99/3/4
f 95/3/4 96/3/4 99/3/4
f 97/3/4 98/3/4 99/3/4
f 99/3/4 98/3/4 100/3/4
f 95/3/4 99/3/4 101/3/4
f 99/1/4 100/1/4 101/1/4
f 100/3/4 98/3/4 102/3/4
f 101/1/4 100/1/4 102/1/4
f 98/3/4 90/3/4 103/3/4
f 102/3/4 98/3/4 103/3/4
f 103/3/4 90/3/4 104/3/4
f 101/3/4 102/3/4 105/3/4
f 102/3/4 103/3/4 105/3/4
f 103/1/4 104/1/4 105/1/4
f 104/3/4 90/3/4 106/3/4
f 105/1/4 104/1/4 106/1/4
f 101/3/4 105/3/4 107/3/4
f 89/3/4 95/3/4 107/3/4
f 105/3/4 106/3/4 107/3/4
f 95/3/4 101/3/4 107/3/4
f 106/3/4 90/3/4 108/3/4
f 107/3/4 106/3/4 108/3/4
f 111/2/5 110/2/5 109/2/5
f 112/2/5 110/2/5 111/2/5
f 115/2/5 114/2/5 113/2/5
f 116/2/5 114/2/5 115/2/5
f 119/3/5 118/3/5 117/3/5
f 120/3/5 118/3/5 119/3/5
f 121/3/5 119/3/5 117/3/5
f 122/3/5 118/3/5 120/3/5
f 123/3/5 121/3/5 117/3/5
f 123/3/5 122/3/5 121/3/5
f 124/3/5 118/3/5 122/3/5
f 124/3/5 122/3/5 123/3/5
f 125/2/6 126/2/6 127/2/6
f 127/2/6 126/2/6 128/2/6
f 129/3/6 130/3/6 131/3/6
f 131/3/6 130/3/6 132/3/6
f 129/3/6 131/3/6 133/3/6
f 131/1/6 132/1/6 133/1/6
f 132/3/6 130/3/6 134/3/6
f 133/1/6 132/1/6 134/1/6
f 129/3/6 133/3/6 135/3/6
f 133/3/6 134/3/6 135/3/6
f 135/3/6 134/3/6 136/3/6
f 129/3/6 135/3/6 137/3/6
f 135/1/6 136/1/6 137/1/6
f 136/3/6 134/3/6 138/3/6
f 137/1/6 136/1/6 138/1/6
f 129/3/6 137/3/6 139/3/6
f 137/3/6 138/3/6 139/3/6
f 134/3/6 130/3/6 140/3/6
f 139/3/6 138/3/6 140/3/6
f 138/3/6 134/3/6 140/3/6
