# MagicaVoxel @ Ephtracy

# group
o 

# material
mtllib bush-2.mtl
usemtl palette

# normals
vn -1 0 0
vn 1 0 0
vn 0 0 1
vn 0 0 -1
vn 0 -1 0
vn 0 1 0

# texcoords
vt 0.244141 0.5
vt 0.583984 0.5
vt 0.849609 0.5

# verts
v -3.6 0.3 -2.5
v -3.6 0.3 -3.1
v -3.6 0.4 -2.9
v -3.6 0.4 -3
v -3.6 0.5 -2.9
v -3.6 0.5 -3
v -3.6 0.6 -2.7
v -3.6 0.6 -2.8
v -3.6 0.7 -2.7
v -3.6 0.7 -2.8
v -3.6 0.8 -2.6
v -3.6 0.8 -2.7
v -3.6 0.8 -2.9
v -3.6 0.8 -3
v -3.6 0.9 -2.6
v -3.6 0.9 -2.7
v -3.6 0.9 -2.9
v -3.6 0.9 -3
v -3.6 1 -2.5
v -3.6 1 -3.1
v -3.4 0.2 -2.7
v -3.4 0.2 -2.9
v -3.4 0.3 -2.7
v -3.4 0.3 -2.9
v -3.3 0 -2.7
v -3.3 0 -2.9
v -3.3 0.2 -2.7
v -3.3 0.2 -2.9
v -3.2 0.2 -2.7
v -3.2 0.2 -2.9
v -3.2 0.3 -2.7
v -3.2 0.3 -2.9
v -3.1 0 -2.7
v -3.1 0 -2.9
v -3.1 0.2 -2.7
v -3.1 0.2 -2.9
v -2.9 0.3 -2.5
v -2.9 0.3 -3.1
v -2.9 0.4 -2.6
v -2.9 0.4 -2.7
v -2.9 0.5 -2.6
v -2.9 0.5 -2.7
v -2.9 0.5 -2.8
v -2.9 0.5 -2.9
v -2.9 0.6 -2.8
v -2.9 0.6 -2.9
v -2.9 0.8 -2.7
v -2.9 0.8 -2.8
v -2.9 0.9 -2.7
v -2.9 0.9 -2.8
v -2.9 1 -2.5
v -2.9 1 -3.1
v -3.6 0.3 -2.5
v -3.6 1 -2.5
v -3.5 0.4 -2.5
v -3.5 0.5 -2.5
v -3.4 0.4 -2.5
v -3.4 0.5 -2.5
v -3.4 0.7 -2.5
v -3.4 0.8 -2.5
v -3.3 0.7 -2.5
v -3.3 0.8 -2.5
v -3.2 0.4 -2.5
v -3.2 0.5 -2.5
v -3.1 0.4 -2.5
v -3.1 0.5 -2.5
v -3.1 0.8 -2.5
v -3.1 0.9 -2.5
v -3 0.8 -2.5
v -3 0.9 -2.5
v -2.9 0.3 -2.5
v -2.9 1 -2.5
v -3.4 0.2 -2.7
v -3.4 0.3 -2.7
v -3.3 0 -2.7
v -3.3 0.2 -2.7
v -3.2 0.2 -2.7
v -3.2 0.3 -2.7
v -3.1 0 -2.7
v -3.1 0.2 -2.7
v -3.4 0.2 -2.9
v -3.4 0.3 -2.9
v -3.3 0 -2.9
v -3.3 0.2 -2.9
v -3.2 0.2 -2.9
v -3.2 0.3 -2.9
v -3.1 0 -2.9
v -3.1 0.2 -2.9
v -3.6 0.3 -3.1
v -3.6 1 -3.1
v -3.5 0.4 -3.1
v -3.5 0.5 -3.1
v -3.5 0.7 -3.1
v -3.5 0.8 -3.1
v -3.4 0.4 -3.1
v -3.4 0.5 -3.1
v -3.4 0.7 -3.1
v -3.4 0.8 -3.1
v -3.2 0.5 -3.1
v -3.2 0.6 -3.1
v -3.1 0.5 -3.1
v -3.1 0.6 -3.1
v -3.1 0.8 -3.1
v -3.1 0.9 -3.1
v -3 0.8 -3.1
v -3 0.9 -3.1
v -2.9 0.3 -3.1
v -2.9 1 -3.1
v -3.3 0 -2.7
v -3.1 0 -2.7
v -3.3 0 -2.9
v -3.1 0 -2.9
v -3.4 0.2 -2.7
v -3.3 0.2 -2.7
v -3.4 0.2 -2.9
v -3.3 0.2 -2.9
v -3.6 0.3 -2.5
v -2.9 0.3 -2.5
v -3.4 0.3 -2.7
v -3.2 0.3 -2.7
v -3.4 0.3 -2.9
v -3.2 0.3 -2.9
v -3.6 0.3 -3.1
v -2.9 0.3 -3.1
v -3.2 0.2 -2.7
v -3.1 0.2 -2.7
v -3.2 0.2 -2.9
v -3.1 0.2 -2.9
v -3.6 1 -2.5
v -2.9 1 -2.5
v -3.2 1 -2.6
v -3.1 1 -2.6
v -3.2 1 -2.7
v -3.1 1 -2.7
v -3.4 1 -2.9
v -3.3 1 -2.9
v -3.4 1 -3
v -3.3 1 -3
v -3.6 1 -3.1
v -2.9 1 -3.1

# faces
f 3/2/1 2/2/1 1/2/1
f 4/2/1 2/2/1 3/2/1
f 5/2/1 3/2/1 1/2/1
f 5/3/1 4/3/1 3/3/1
f 6/2/1 2/2/1 4/2/1
f 6/3/1 4/3/1 5/3/1
f 7/2/1 5/2/1 1/2/1
f 7/2/1 6/2/1 5/2/1
f 8/2/1 6/2/1 7/2/1
f 9/2/1 7/2/1 1/2/1
f 9/3/1 8/3/1 7/3/1
f 10/2/1 6/2/1 8/2/1
f 10/3/1 8/3/1 9/3/1
f 11/2/1 9/2/1 1/2/1
f 11/2/1 10/2/1 9/2/1
f 12/2/1 10/2/1 11/2/1
f 13/2/1 6/2/1 10/2/1
f 13/2/1 10/2/1 12/2/1
f 14/2/1 2/2/1 6/2/1
f 14/2/1 6/2/1 13/2/1
f 15/3/1 12/3/1 11/3/1
f 15/2/1 11/2/1 1/2/1
f 16/2/1 13/2/1 12/2/1
f 16/3/1 12/3/1 15/3/1
f 17/3/1 14/3/1 13/3/1
f 17/2/1 13/2/1 16/2/1
f 18/2/1 2/2/1 14/2/1
f 18/3/1 14/3/1 17/3/1
f 19/2/1 15/2/1 1/2/1
f 19/2/1 17/2/1 16/2/1
f 19/2/1 18/2/1 17/2/1
f 19/2/1 16/2/1 15/2/1
f 20/2/1 2/2/1 18/2/1
f 20/2/1 18/2/1 19/2/1
f 23/1/1 22/1/1 21/1/1
f 24/1/1 22/1/1 23/1/1
f 27/1/1 26/1/1 25/1/1
f 28/1/1 26/1/1 27/1/1
f 29/1/2 30/1/2 31/1/2
f 31/1/2 30/1/2 32/1/2
f 33/1/2 34/1/2 35/1/2
f 35/1/2 34/1/2 36/1/2
f 37/2/2 38/2/2 39/2/2
f 39/2/2 38/2/2 40/2/2
f 37/2/2 39/2/2 41/2/2
f 39/3/2 40/3/2 41/3/2
f 40/2/2 38/2/2 42/2/2
f 41/3/2 40/3/2 42/3/2
f 42/2/2 38/2/2 43/2/2
f 43/2/2 38/2/2 44/2/2
f 41/2/2 42/2/2 45/2/2
f 42/2/2 43/2/2 45/2/2
f 43/3/2 44/3/2 45/3/2
f 44/2/2 38/2/2 46/2/2
f 45/3/2 44/3/2 46/3/2
f 41/2/2 45/2/2 47/2/2
f 45/2/2 46/2/2 47/2/2
f 47/2/2 46/2/2 48/2/2
f 41/2/2 47/2/2 49/2/2
f 47/3/2 48/3/2 49/3/2
f 48/2/2 46/2/2 50/2/2
f 49/3/2 48/3/2 50/3/2
f 37/2/2 41/2/2 51/2/2
f 41/2/2 49/2/2 51/2/2
f 49/2/2 50/2/2 51/2/2
f 50/2/2 46/2/2 52/2/2
f 51/2/2 50/2/2 52/2/2
f 46/2/2 38/2/2 52/2/2
f 55/2/3 54/2/3 53/2/3
f 56/2/3 54/2/3 55/2/3
f 57/2/3 55/2/3 53/2/3
f 57/3/3 56/3/3 55/3/3
f 58/2/3 54/2/3 56/2/3
f 58/3/3 56/3/3 57/3/3
f 59/2/3 54/2/3 58/2/3
f 60/2/3 54/2/3 59/2/3
f 61/2/3 58/2/3 57/2/3
f 61/2/3 59/2/3 58/2/3
f 61/3/3 60/3/3 59/3/3
f 62/2/3 54/2/3 60/2/3
f 62/3/3 60/3/3 61/3/3
f 63/2/3 57/2/3 53/2/3
f 63/2/3 61/2/3 57/2/3
f 63/2/3 62/2/3 61/2/3
f 64/2/3 62/2/3 63/2/3
f 65/2/3 63/2/3 53/2/3
f 65/3/3 64/3/3 63/3/3
f 66/2/3 62/2/3 64/2/3
f 66/3/3 64/3/3 65/3/3
f 67/2/3 54/2/3 62/2/3
f 67/2/3 62/2/3 66/2/3
f 68/2/3 54/2/3 67/2/3
f 69/2/3 66/2/3 65/2/3
f 69/2/3 67/2/3 66/2/3
f 69/3/3 68/3/3 67/3/3
f 70/2/3 54/2/3 68/2/3
f 70/3/3 68/3/3 69/3/3
f 71/2/3 69/2/3 65/2/3
f 71/2/3 65/2/3 53/2/3
f 71/2/3 70/2/3 69/2/3
f 72/2/3 54/2/3 70/2/3
f 72/2/3 70/2/3 71/2/3
f 76/1/3 74/1/3 73/1/3
f 77/1/3 74/1/3 76/1/3
f 77/1/3 76/1/3 75/1/3
f 78/1/3 74/1/3 77/1/3
f 79/1/3 77/1/3 75/1/3
f 80/1/3 77/1/3 79/1/3
f 81/1/4 82/1/4 84/1/4
f 84/1/4 82/1/4 85/1/4
f 83/1/4 84/1/4 85/1/4
f 85/1/4 82/1/4 86/1/4
f 83/1/4 85/1/4 87/1/4
f 87/1/4 85/1/4 88/1/4
f 89/2/4 90/2/4 91/2/4
f 91/2/4 90/2/4 92/2/4
f 92/2/4 90/2/4 93/2/4
f 93/2/4 90/2/4 94/2/4
f 89/2/4 91/2/4 95/2/4
f 91/3/4 92/3/4 95/3/4
f 92/2/4 93/2/4 96/2/4
f 95/3/4 92/3/4 96/3/4
f 93/3/4 94/3/4 97/3/4
f 96/2/4 93/2/4 97/2/4
f 94/2/4 90/2/4 98/2/4
f 97/3/4 94/3/4 98/3/4
f 96/2/4 97/2/4 99/2/4
f 95/2/4 96/2/4 99/2/4
f 97/2/4 98/2/4 99/2/4
f 99/2/4 98/2/4 100/2/4
f 95/2/4 99/2/4 101/2/4
f 99/3/4 100/3/4 101/3/4
f 100/2/4 98/2/4 102/2/4
f 101/3/4 100/3/4 102/3/4
f 98/2/4 90/2/4 103/2/4
f 102/2/4 98/2/4 103/2/4
f 103/2/4 90/2/4 104/2/4
f 101/2/4 102/2/4 105/2/4
f 102/2/4 103/2/4 105/2/4
f 103/3/4 104/3/4 105/3/4
f 104/2/4 90/2/4 106/2/4
f 105/3/4 104/3/4 106/3/4
f 101/2/4 105/2/4 107/2/4
f 89/2/4 95/2/4 107/2/4
f 105/2/4 106/2/4 107/2/4
f 95/2/4 101/2/4 107/2/4
f 106/2/4 90/2/4 108/2/4
f 107/2/4 106/2/4 108/2/4
f 111/1/5 110/1/5 109/1/5
f 112/1/5 110/1/5 111/1/5
f 115/1/5 114/1/5 113/1/5
f 116/1/5 114/1/5 115/1/5
f 119/2/5 118/2/5 117/2/5
f 120/2/5 118/2/5 119/2/5
f 121/2/5 119/2/5 117/2/5
f 122/2/5 118/2/5 120/2/5
f 123/2/5 121/2/5 117/2/5
f 123/2/5 122/2/5 121/2/5
f 124/2/5 118/2/5 122/2/5
f 124/2/5 122/2/5 123/2/5
f 125/1/6 126/1/6 127/1/6
f 127/1/6 126/1/6 128/1/6
f 129/2/6 130/2/6 131/2/6
f 131/2/6 130/2/6 132/2/6
f 129/2/6 131/2/6 133/2/6
f 131/3/6 132/3/6 133/3/6
f 132/2/6 130/2/6 134/2/6
f 133/3/6 132/3/6 134/3/6
f 129/2/6 133/2/6 135/2/6
f 133/2/6 134/2/6 135/2/6
f 135/2/6 134/2/6 136/2/6
f 129/2/6 135/2/6 137/2/6
f 135/3/6 136/3/6 137/3/6
f 136/2/6 134/2/6 138/2/6
f 137/3/6 136/3/6 138/3/6
f 129/2/6 137/2/6 139/2/6
f 137/2/6 138/2/6 139/2/6
f 134/2/6 130/2/6 140/2/6
f 139/2/6 138/2/6 140/2/6
f 138/2/6 134/2/6 140/2/6
