# MagicaVoxel @ Ephtracy

# group
o 

# material
mtllib hamster-1.mtl
usemtl palette

# normals
vn -1 0 0
vn 1 0 0
vn 0 0 1
vn 0 0 -1
vn 0 -1 0
vn 0 1 0

# texcoords
vt 0.146484 0.5
vt 0.166016 0.5
vt 0.193359 0.5
vt 0.236328 0.5
vt 0.916016 0.5
vt 0.994141 0.5

# verts
v -0.4 0.2 0.5
v -0.4 0.2 -0.6
v -0.4 0.3 0.8
v -0.4 0.3 0.5
v -0.4 0.4 0.1
v -0.4 0.4 -0.2
v -0.4 0.5 0.4
v -0.4 0.5 0.1
v -0.4 0.5 -0.2
v -0.4 0.5 -0.6
v -0.4 0.6 0.5
v -0.4 0.6 0.4
v -0.4 0.7 0.8
v -0.4 0.7 0.5
v -0.3 0.2 0.6
v -0.3 0.2 0.5
v -0.3 0.2 -0.6
v -0.3 0.2 -0.7
v -0.3 0.3 0.6
v -0.3 0.3 0.5
v -0.3 0.4 -0.6
v -0.3 0.4 -0.7
v -0.3 0.5 0.4
v -0.3 0.5 0.2
v -0.3 0.5 0.1
v -0.3 0.5 -0.2
v -0.3 0.5 -0.3
v -0.3 0.5 -0.5
v -0.3 0.5 -0.6
v -0.3 0.5 -0.7
v -0.3 0.6 0.5
v -0.3 0.6 0.4
v -0.3 0.6 0.3
v -0.3 0.6 0.2
v -0.3 0.6 -0.3
v -0.3 0.6 -0.5
v -0.3 0.7 0.8
v -0.3 0.7 0.5
v -0.3 0.8 0.4
v -0.3 0.8 0.3
v -0.3 0.9 0.8
v -0.3 0.9 0.7
v -0.3 0.9 0.6
v -0.3 0.9 0.4
v -0.3 1 0.7
v -0.3 1 0.6
v -0.2 0.4 0.9
v -0.2 0.4 0.8
v -0.2 0.5 0.9
v -0.2 0.5 0.8
v -0.2 0.5 -0.5
v -0.2 0.5 -0.6
v -0.2 0.6 0.9
v -0.2 0.6 0.8
v -0.2 0.6 -0.5
v -0.2 0.6 -0.6
v -0.1 0.2 -0.7
v -0.1 0.2 -0.8
v -0.1 0.4 -0.7
v -0.1 0.4 -0.8
v 0.1 0.9 0.7
v 0.1 0.9 0.6
v 0.1 1 0.7
v 0.1 1 0.6
v -0.2 0.9 0.7
v -0.2 0.9 0.6
v -0.2 1 0.7
v -0.2 1 0.6
v 0.1 0.2 -0.7
v 0.1 0.2 -0.8
v 0.1 0.3 -0.7
v 0.1 0.3 -0.8
v 0.1 0.4 0.9
v 0.1 0.4 0.8
v 0.1 0.4 -0.7
v 0.1 0.4 -0.8
v 0.1 0.5 0.9
v 0.1 0.5 0.8
v 0.1 0.5 -0.5
v 0.1 0.5 -0.6
v 0.1 0.6 0.9
v 0.1 0.6 0.8
v 0.1 0.6 -0.5
v 0.1 0.6 -0.6
v 0.2 0.2 0.6
v 0.2 0.2 0.5
v 0.2 0.2 -0.6
v 0.2 0.2 -0.7
v 0.2 0.3 0.6
v 0.2 0.3 0.5
v 0.2 0.5 0.4
v 0.2 0.5 -0.1
v 0.2 0.5 -0.4
v 0.2 0.5 -0.5
v 0.2 0.5 -0.6
v 0.2 0.5 -0.7
v 0.2 0.6 0.5
v 0.2 0.6 0.4
v 0.2 0.6 0.3
v 0.2 0.6 -0.5
v 0.2 0.7 0.8
v 0.2 0.7 0.5
v 0.2 0.8 0.4
v 0.2 0.8 0.3
v 0.2 0.9 0.8
v 0.2 0.9 0.7
v 0.2 0.9 0.6
v 0.2 0.9 0.5
v 0.2 0.9 0.4
v 0.2 1 0.7
v 0.2 1 0.6
v 0.3 0.2 0.5
v 0.3 0.2 -0.6
v 0.3 0.3 0.8
v 0.3 0.3 0.5
v 0.3 0.4 -0.1
v 0.3 0.4 -0.4
v 0.3 0.5 0.5
v 0.3 0.5 0.4
v 0.3 0.5 -0.1
v 0.3 0.5 -0.4
v 0.3 0.5 -0.6
v 0.3 0.6 0.5
v 0.3 0.6 0.4
v 0.3 0.7 0.8
v 0.3 0.7 0.5
v -0.2 0.4 0.9
v -0.2 0.5 0.9
v -0.2 0.6 0.9
v -0.1 0.5 0.9
v -0.1 0.6 0.9
v 0 0.5 0.9
v 0 0.6 0.9
v 0.1 0.4 0.9
v 0.1 0.5 0.9
v 0.1 0.6 0.9
v -0.4 0.3 0.8
v -0.4 0.7 0.8
v -0.3 0.3 0.8
v -0.3 0.6 0.8
v -0.3 0.7 0.8
v -0.3 0.9 0.8
v -0.2 0.4 0.8
v -0.2 0.5 0.8
v -0.2 0.6 0.8
v -0.2 0.7 0.8
v -0.1 0.6 0.8
v -0.1 0.7 0.8
v -0.1 0.9 0.8
v 0 0.6 0.8
v 0 0.7 0.8
v 0 0.9 0.8
v 0.1 0.4 0.8
v 0.1 0.5 0.8
v 0.1 0.6 0.8
v 0.1 0.7 0.8
v 0.2 0.3 0.8
v 0.2 0.6 0.8
v 0.2 0.7 0.8
v 0.2 0.9 0.8
v 0.3 0.3 0.8
v 0.3 0.7 0.8
v -0.3 0.9 0.7
v -0.3 1 0.7
v -0.2 0.9 0.7
v -0.2 1 0.7
v 0.1 0.9 0.7
v 0.1 1 0.7
v 0.2 0.9 0.7
v 0.2 1 0.7
v -0.3 0.2 0.6
v -0.3 0.3 0.6
v 0.2 0.2 0.6
v 0.2 0.3 0.6
v -0.4 0.2 0.5
v -0.4 0.3 0.5
v -0.3 0.2 0.5
v -0.3 0.3 0.5
v 0.2 0.2 0.5
v 0.2 0.3 0.5
v 0.3 0.2 0.5
v 0.3 0.3 0.5
v -0.3 0.9 0.6
v -0.3 1 0.6
v -0.2 0.9 0.6
v -0.2 1 0.6
v 0.1 0.9 0.6
v 0.1 1 0.6
v 0.2 0.9 0.6
v 0.2 1 0.6
v -0.4 0.6 0.5
v -0.4 0.7 0.5
v -0.3 0.6 0.5
v -0.3 0.7 0.5
v 0.2 0.6 0.5
v 0.2 0.7 0.5
v 0.3 0.6 0.5
v 0.3 0.7 0.5
v -0.4 0.5 0.4
v -0.4 0.6 0.4
v -0.3 0.5 0.4
v -0.3 0.6 0.4
v -0.3 0.8 0.4
v -0.3 0.9 0.4
v -0.2 0.8 0.4
v -0.2 0.9 0.4
v 0.2 0.5 0.4
v 0.2 0.6 0.4
v 0.2 0.8 0.4
v 0.2 0.9 0.4
v 0.3 0.5 0.4
v 0.3 0.6 0.4
v -0.3 0.6 0.3
v -0.3 0.8 0.3
v -0.2 0.6 0.3
v 0.2 0.6 0.3
v 0.2 0.8 0.3
v -0.3 0.5 -0.5
v -0.3 0.6 -0.5
v -0.2 0.5 -0.5
v -0.2 0.6 -0.5
v 0.1 0.5 -0.5
v 0.1 0.6 -0.5
v 0.2 0.5 -0.5
v 0.2 0.6 -0.5
v -0.4 0.2 -0.6
v -0.4 0.5 -0.6
v -0.3 0.2 -0.6
v -0.3 0.4 -0.6
v -0.3 0.5 -0.6
v -0.2 0.5 -0.6
v -0.2 0.6 -0.6
v -0.1 0.5 -0.6
v -0.1 0.6 -0.6
v 0.1 0.5 -0.6
v 0.1 0.6 -0.6
v 0.2 0.2 -0.6
v 0.2 0.5 -0.6
v 0.3 0.2 -0.6
v 0.3 0.5 -0.6
v -0.3 0.2 -0.7
v -0.3 0.4 -0.7
v -0.3 0.5 -0.7
v -0.1 0.2 -0.7
v -0.1 0.4 -0.7
v 0 0.4 -0.7
v 0.1 0.2 -0.7
v 0.1 0.3 -0.7
v 0.1 0.4 -0.7
v 0.2 0.2 -0.7
v 0.2 0.5 -0.7
v -0.1 0.2 -0.8
v -0.1 0.4 -0.8
v 0 0.3 -0.8
v 0 0.4 -0.8
v 0.1 0.2 -0.8
v 0.1 0.3 -0.8
v 0.1 0.4 -0.8
v -0.3 0.2 0.6
v 0.2 0.2 0.6
v -0.4 0.2 0.5
v -0.3 0.2 0.5
v 0.2 0.2 0.5
v 0.3 0.2 0.5
v -0.4 0.2 -0.6
v -0.3 0.2 -0.6
v -0.1 0.2 -0.6
v 0.2 0.2 -0.6
v 0.3 0.2 -0.6
v -0.3 0.2 -0.7
v -0.1 0.2 -0.7
v 0.1 0.2 -0.7
v 0.2 0.2 -0.7
v -0.1 0.2 -0.8
v 0.1 0.2 -0.8
v -0.4 0.3 0.8
v -0.3 0.3 0.8
v 0.2 0.3 0.8
v 0.3 0.3 0.8
v -0.3 0.3 0.6
v 0.2 0.3 0.6
v -0.4 0.3 0.5
v -0.3 0.3 0.5
v 0.2 0.3 0.5
v 0.3 0.3 0.5
v -0.2 0.4 0.9
v 0.1 0.4 0.9
v -0.2 0.4 0.8
v 0.1 0.4 0.8
v -0.1 0.4 -0.7
v 0 0.4 -0.7
v 0.1 0.4 -0.7
v -0.1 0.4 -0.8
v 0 0.4 -0.8
v 0.1 0.4 -0.8
v -0.4 0.5 0.4
v -0.3 0.5 0.4
v 0.2 0.5 0.4
v 0.3 0.5 0.4
v -0.3 0.5 0.2
v -0.4 0.5 0.1
v -0.3 0.5 0.1
v 0.2 0.5 -0.1
v 0.3 0.5 -0.1
v -0.4 0.5 -0.2
v -0.3 0.5 -0.2
v -0.3 0.5 -0.3
v 0.2 0.5 -0.4
v 0.3 0.5 -0.4
v -0.3 0.5 -0.5
v -0.2 0.5 -0.5
v 0.1 0.5 -0.5
v 0.2 0.5 -0.5
v -0.4 0.5 -0.6
v -0.3 0.5 -0.6
v -0.2 0.5 -0.6
v -0.1 0.5 -0.6
v 0.1 0.5 -0.6
v 0.2 0.5 -0.6
v 0.3 0.5 -0.6
v -0.3 0.5 -0.7
v 0.2 0.5 -0.7
v -0.2 0.6 0.9
v -0.1 0.6 0.9
v 0 0.6 0.9
v 0.1 0.6 0.9
v -0.2 0.6 0.8
v -0.1 0.6 0.8
v 0 0.6 0.8
v 0.1 0.6 0.8
v -0.4 0.6 0.5
v -0.3 0.6 0.5
v 0.2 0.6 0.5
v 0.3 0.6 0.5
v -0.4 0.6 0.4
v -0.3 0.6 0.4
v 0.2 0.6 0.4
v 0.3 0.6 0.4
v -0.3 0.6 0.3
v -0.2 0.6 0.3
v 0.2 0.6 0.3
v -0.3 0.6 0.2
v -0.2 0.6 0.2
v -0.3 0.6 -0.3
v -0.2 0.6 -0.3
v -0.3 0.6 -0.5
v -0.2 0.6 -0.5
v -0.1 0.6 -0.5
v 0.1 0.6 -0.5
v 0.2 0.6 -0.5
v -0.2 0.6 -0.6
v -0.1 0.6 -0.6
v 0.1 0.6 -0.6
v -0.4 0.7 0.8
v -0.3 0.7 0.8
v 0.2 0.7 0.8
v 0.3 0.7 0.8
v -0.4 0.7 0.5
v -0.3 0.7 0.5
v 0.2 0.7 0.5
v 0.3 0.7 0.5
v -0.3 0.8 0.4
v -0.2 0.8 0.4
v 0.2 0.8 0.4
v -0.3 0.8 0.3
v 0.2 0.8 0.3
v -0.3 0.9 0.8
v -0.1 0.9 0.8
v 0 0.9 0.8
v 0.2 0.9 0.8
v -0.3 0.9 0.7
v -0.2 0.9 0.7
v -0.1 0.9 0.7
v 0.1 0.9 0.7
v 0.2 0.9 0.7
v -0.3 0.9 0.6
v -0.2 0.9 0.6
v 0 0.9 0.6
v 0.1 0.9 0.6
v 0.2 0.9 0.6
v 0.1 0.9 0.5
v 0.2 0.9 0.5
v -0.3 0.9 0.4
v -0.2 0.9 0.4
v 0.2 0.9 0.4
v -0.3 1 0.7
v -0.2 1 0.7
v 0.1 1 0.7
v 0.2 1 0.7
v -0.3 1 0.6
v -0.2 1 0.6
v 0.1 1 0.6
v 0.2 1 0.6

# faces
f 4/3/1 2/3/1 1/3/1
f 5/3/1 2/3/1 4/3/1
f 5/3/1 4/3/1 3/3/1
f 6/3/1 2/3/1 5/3/1
f 7/3/1 5/3/1 3/3/1
f 8/2/1 6/2/1 5/2/1
f 8/3/1 5/3/1 7/3/1
f 9/3/1 2/3/1 6/3/1
f 9/2/1 6/2/1 8/2/1
f 10/3/1 2/3/1 9/3/1
f 11/3/1 7/3/1 3/3/1
f 12/3/1 7/3/1 11/3/1
f 13/3/1 11/3/1 3/3/1
f 14/3/1 11/3/1 13/3/1
f 19/5/1 16/5/1 15/5/1
f 20/5/1 16/5/1 19/5/1
f 21/2/1 18/2/1 17/2/1
f 22/2/1 18/2/1 21/2/1
f 29/3/1 22/3/1 21/3/1
f 30/3/1 22/3/1 29/3/1
f 32/3/1 24/3/1 23/3/1
f 33/3/1 24/3/1 32/3/1
f 34/2/1 25/2/1 24/2/1
f 34/3/1 24/3/1 33/3/1
f 34/2/1 26/2/1 25/2/1
f 34/2/1 27/2/1 26/2/1
f 35/3/1 28/3/1 27/3/1
f 35/2/1 27/2/1 34/2/1
f 36/3/1 28/3/1 35/3/1
f 38/3/1 32/3/1 31/3/1
f 39/2/1 33/2/1 32/2/1
f 39/3/1 38/3/1 37/3/1
f 39/3/1 32/3/1 38/3/1
f 40/2/1 33/2/1 39/2/1
f 41/3/1 39/3/1 37/3/1
f 42/3/1 39/3/1 41/3/1
f 43/3/1 39/3/1 42/3/1
f 44/3/1 39/3/1 43/3/1
f 45/3/1 43/3/1 42/3/1
f 46/3/1 43/3/1 45/3/1
f 49/4/1 48/4/1 47/4/1
f 50/4/1 48/4/1 49/4/1
f 53/3/1 50/3/1 49/3/1
f 54/3/1 50/3/1 53/3/1
f 55/3/1 52/3/1 51/3/1
f 56/3/1 52/3/1 55/3/1
f 59/3/1 58/3/1 57/3/1
f 60/3/1 58/3/1 59/3/1
f 63/3/1 62/3/1 61/3/1
f 64/3/1 62/3/1 63/3/1
f 65/3/2 66/3/2 67/3/2
f 67/3/2 66/3/2 68/3/2
f 69/3/2 70/3/2 71/3/2
f 71/3/2 70/3/2 72/3/2
f 71/2/2 72/2/2 75/2/2
f 75/2/2 72/2/2 76/2/2
f 73/4/2 74/4/2 77/4/2
f 77/4/2 74/4/2 78/4/2
f 77/3/2 78/3/2 81/3/2
f 81/3/2 78/3/2 82/3/2
f 79/2/2 80/2/2 83/2/2
f 83/2/2 80/2/2 84/2/2
f 85/5/2 86/5/2 89/5/2
f 89/5/2 86/5/2 90/5/2
f 87/3/2 88/3/2 95/3/2
f 95/3/2 88/3/2 96/3/2
f 93/2/2 94/2/2 98/2/2
f 91/2/2 92/2/2 98/2/2
f 92/2/2 93/2/2 98/2/2
f 98/2/2 94/2/2 99/2/2
f 99/2/2 94/2/2 100/2/2
f 97/2/2 98/2/2 102/2/2
f 98/2/2 99/2/2 102/2/2
f 102/2/2 99/2/2 103/2/2
f 103/2/2 99/2/2 104/2/2
f 101/3/2 102/3/2 105/3/2
f 105/3/2 102/3/2 106/3/2
f 106/3/2 102/3/2 107/3/2
f 102/2/2 103/2/2 108/2/2
f 107/3/2 102/3/2 108/3/2
f 108/2/2 103/2/2 109/2/2
f 106/3/2 107/3/2 110/3/2
f 110/3/2 107/3/2 111/3/2
f 112/3/2 113/3/2 115/3/2
f 115/3/2 113/3/2 116/3/2
f 114/3/2 115/3/2 116/3/2
f 116/3/2 113/3/2 117/3/2
f 114/3/2 116/3/2 118/3/2
f 118/3/2 116/3/2 119/3/2
f 116/2/2 117/2/2 120/2/2
f 119/3/2 116/3/2 120/3/2
f 117/3/2 113/3/2 121/3/2
f 120/2/2 117/2/2 121/2/2
f 121/3/2 113/3/2 122/3/2
f 118/2/2 119/2/2 123/2/2
f 114/3/2 118/3/2 123/3/2
f 123/2/2 119/2/2 124/2/2
f 114/3/2 123/3/2 125/3/2
f 125/3/2 123/3/2 126/3/2
f 130/4/3 128/4/3 127/4/3
f 130/3/3 129/3/3 128/3/3
f 131/3/3 129/3/3 130/3/3
f 132/4/3 130/4/3 127/4/3
f 132/1/3 131/1/3 130/1/3
f 133/1/3 131/1/3 132/1/3
f 134/4/3 132/4/3 127/4/3
f 135/3/3 133/3/3 132/3/3
f 135/4/3 132/4/3 134/4/3
f 136/3/3 133/3/3 135/3/3
f 139/3/3 138/3/3 137/3/3
f 140/3/3 138/3/3 139/3/3
f 141/3/3 138/3/3 140/3/3
f 143/5/3 140/5/3 139/5/3
f 144/5/3 140/5/3 143/5/3
f 145/6/3 141/6/3 140/6/3
f 145/5/3 140/5/3 144/5/3
f 146/3/3 142/3/3 141/3/3
f 146/6/3 141/6/3 145/6/3
f 147/3/3 146/3/3 145/3/3
f 148/3/3 142/3/3 146/3/3
f 148/3/3 146/3/3 147/3/3
f 149/3/3 142/3/3 148/3/3
f 150/3/3 148/3/3 147/3/3
f 151/2/3 149/2/3 148/2/3
f 151/3/3 148/3/3 150/3/3
f 152/2/3 149/2/3 151/2/3
f 153/5/3 143/5/3 139/5/3
f 155/3/3 151/3/3 150/3/3
f 155/3/3 152/3/3 151/3/3
f 156/3/3 152/3/3 155/3/3
f 157/5/3 154/5/3 153/5/3
f 157/5/3 153/5/3 139/5/3
f 157/5/3 155/5/3 154/5/3
f 158/6/3 156/6/3 155/6/3
f 158/5/3 155/5/3 157/5/3
f 159/3/3 152/3/3 156/3/3
f 159/6/3 156/6/3 158/6/3
f 160/3/3 152/3/3 159/3/3
f 161/3/3 158/3/3 157/3/3
f 161/3/3 159/3/3 158/3/3
f 162/3/3 159/3/3 161/3/3
f 165/3/3 164/3/3 163/3/3
f 166/3/3 164/3/3 165/3/3
f 169/3/3 168/3/3 167/3/3
f 170/3/3 168/3/3 169/3/3
f 173/5/3 172/5/3 171/5/3
f 174/5/3 172/5/3 173/5/3
f 177/3/3 176/3/3 175/3/3
f 178/3/3 176/3/3 177/3/3
f 181/3/3 180/3/3 179/3/3
f 182/3/3 180/3/3 181/3/3
f 183/3/4 184/3/4 185/3/4
f 185/3/4 184/3/4 186/3/4
f 187/3/4 188/3/4 189/3/4
f 189/3/4 188/3/4 190/3/4
f 191/3/4 192/3/4 193/3/4
f 193/3/4 192/3/4 194/3/4
f 195/3/4 196/3/4 197/3/4
f 197/3/4 196/3/4 198/3/4
f 199/3/4 200/3/4 201/3/4
f 201/3/4 200/3/4 202/3/4
f 203/3/4 204/3/4 205/3/4
f 205/3/4 204/3/4 206/3/4
f 205/2/4 206/2/4 209/2/4
f 209/2/4 206/2/4 210/2/4
f 207/2/4 208/2/4 211/2/4
f 211/2/4 208/2/4 212/2/4
f 213/2/4 214/2/4 215/2/4
f 215/2/4 214/2/4 216/2/4
f 216/2/4 214/2/4 217/2/4
f 218/3/4 219/3/4 220/3/4
f 220/3/4 219/3/4 221/3/4
f 222/2/4 223/2/4 224/2/4
f 224/2/4 223/2/4 225/2/4
f 226/3/4 227/3/4 228/3/4
f 228/3/4 227/3/4 229/3/4
f 229/3/4 227/3/4 230/3/4
f 231/3/4 232/3/4 233/3/4
f 233/3/4 232/3/4 234/3/4
f 233/2/4 234/2/4 235/2/4
f 235/2/4 234/2/4 236/2/4
f 237/3/4 238/3/4 239/3/4
f 239/3/4 238/3/4 240/3/4
f 241/2/4 242/2/4 244/2/4
f 242/3/4 243/3/4 245/3/4
f 244/2/4 242/2/4 245/2/4
f 245/3/4 243/3/4 246/3/4
f 246/3/4 243/3/4 249/3/4
f 247/3/4 248/3/4 250/3/4
f 248/3/4 249/3/4 250/3/4
f 249/3/4 243/3/4 251/3/4
f 250/3/4 249/3/4 251/3/4
f 252/3/4 253/3/4 254/3/4
f 254/3/4 253/3/4 255/3/4
f 252/3/4 254/3/4 256/3/4
f 254/2/4 255/2/4 257/2/4
f 256/3/4 254/3/4 257/3/4
f 257/2/4 255/2/4 258/2/4
f 262/5/5 260/5/5 259/5/5
f 263/5/5 260/5/5 262/5/5
f 265/3/5 262/3/5 261/3/5
f 266/5/5 263/5/5 262/5/5
f 266/3/5 262/3/5 265/3/5
f 267/5/5 263/5/5 266/5/5
f 268/3/5 264/3/5 263/3/5
f 268/5/5 263/5/5 267/5/5
f 269/3/5 264/3/5 268/3/5
f 270/2/5 267/2/5 266/2/5
f 271/3/5 268/3/5 267/3/5
f 271/2/5 267/2/5 270/2/5
f 272/3/5 268/3/5 271/3/5
f 273/3/5 268/3/5 272/3/5
f 274/3/5 272/3/5 271/3/5
f 275/3/5 272/3/5 274/3/5
f 280/3/5 277/3/5 276/3/5
f 280/5/5 278/5/5 277/5/5
f 281/3/5 279/3/5 278/3/5
f 281/5/5 278/5/5 280/5/5
f 282/3/5 280/3/5 276/3/5
f 283/3/5 280/3/5 282/3/5
f 284/3/5 279/3/5 281/3/5
f 285/3/5 279/3/5 284/3/5
f 288/4/5 287/4/5 286/4/5
f 289/4/5 287/4/5 288/4/5
f 290/3/6 291/3/6 293/3/6
f 291/2/6 292/2/6 294/2/6
f 293/3/6 291/3/6 294/3/6
f 294/2/6 292/2/6 295/2/6
f 296/3/6 297/3/6 300/3/6
f 296/3/6 300/3/6 301/3/6
f 301/3/6 300/3/6 302/3/6
f 298/3/6 299/3/6 303/3/6
f 303/3/6 299/3/6 304/3/6
f 301/2/6 302/2/6 305/2/6
f 305/2/6 302/2/6 306/2/6
f 305/3/6 306/3/6 307/3/6
f 303/2/6 304/2/6 308/2/6
f 308/2/6 304/2/6 309/2/6
f 305/3/6 307/3/6 310/3/6
f 308/3/6 309/3/6 313/3/6
f 310/3/6 311/3/6 314/3/6
f 305/3/6 310/3/6 314/3/6
f 314/3/6 311/3/6 315/3/6
f 315/3/6 311/3/6 316/3/6
f 312/3/6 313/3/6 318/3/6
f 313/3/6 309/3/6 319/3/6
f 318/3/6 313/3/6 319/3/6
f 319/3/6 309/3/6 320/3/6
f 316/3/6 317/3/6 321/3/6
f 317/3/6 318/3/6 321/3/6
f 318/3/6 319/3/6 321/3/6
f 315/3/6 316/3/6 321/3/6
f 321/3/6 319/3/6 322/3/6
f 323/3/6 324/3/6 327/3/6
f 324/1/6 325/1/6 328/1/6
f 327/3/6 324/3/6 328/3/6
f 325/3/6 326/3/6 329/3/6
f 328/1/6 325/1/6 329/1/6
f 329/3/6 326/3/6 330/3/6
f 331/3/6 332/3/6 335/3/6
f 335/3/6 332/3/6 336/3/6
f 333/2/6 334/2/6 337/2/6
f 337/2/6 334/2/6 338/2/6
f 339/3/6 340/3/6 342/3/6
f 340/2/6 341/2/6 343/2/6
f 342/3/6 340/3/6 343/3/6
f 342/2/6 343/2/6 344/2/6
f 343/2/6 341/2/6 345/2/6
f 344/2/6 343/2/6 345/2/6
f 344/3/6 345/3/6 346/3/6
f 345/2/6 341/2/6 347/2/6
f 346/3/6 345/3/6 347/3/6
f 347/2/6 341/2/6 348/2/6
f 348/2/6 341/2/6 349/2/6
f 349/2/6 341/2/6 350/2/6
f 347/3/6 348/3/6 351/3/6
f 348/2/6 349/2/6 352/2/6
f 351/3/6 348/3/6 352/3/6
f 352/2/6 349/2/6 353/2/6
f 354/3/6 355/3/6 358/3/6
f 358/3/6 355/3/6 359/3/6
f 356/3/6 357/3/6 360/3/6
f 360/3/6 357/3/6 361/3/6
f 362/2/6 363/2/6 365/2/6
f 363/2/6 364/2/6 365/2/6
f 365/2/6 364/2/6 366/2/6
f 367/3/6 368/3/6 371/3/6
f 371/3/6 368/3/6 372/3/6
f 368/2/6 369/2/6 373/2/6
f 372/3/6 368/3/6 373/3/6
f 369/3/6 370/3/6 374/3/6
f 374/3/6 370/3/6 375/3/6
f 372/2/6 373/2/6 377/2/6
f 373/2/6 369/2/6 378/2/6
f 369/3/6 374/3/6 378/3/6
f 377/2/6 373/2/6 378/2/6
f 378/3/6 374/3/6 379/3/6
f 377/2/6 378/2/6 381/2/6
f 379/3/6 380/3/6 381/3/6
f 378/2/6 379/2/6 381/2/6
f 381/3/6 380/3/6 382/3/6
f 376/3/6 377/3/6 383/3/6
f 377/2/6 381/2/6 384/2/6
f 383/3/6 377/3/6 384/3/6
f 381/2/6 382/2/6 384/2/6
f 384/2/6 382/2/6 385/2/6
f 386/3/6 387/3/6 390/3/6
f 390/3/6 387/3/6 391/3/6
f 388/3/6 389/3/6 392/3/6
f 392/3/6 389/3/6 393/3/6
