# MagicaVoxel @ Ephtracy

# group
o 

# material
mtllib panda-1.mtl
usemtl palette

# normals
vn -1 0 0
vn 1 0 0
vn 0 0 1
vn 0 0 -1
vn 0 -1 0
vn 0 1 0

# texcoords
vt 0.916016 0.5
vt 0.947266 0.5
vt 0.994141 0.5

# verts
v -0.6 0.6 0.6
v -0.6 0.6 0.4
v -0.6 0.7 0.7
v -0.6 0.7 0.6
v -0.6 0.7 0.4
v -0.6 0.7 0.3
v -0.6 1.1 0.7
v -0.6 1.1 0.6
v -0.6 1.1 0.4
v -0.6 1.1 0.3
v -0.6 1.2 0.6
v -0.6 1.2 0.4
v -0.5 0.3 0.6
v -0.5 0.3 0.3
v -0.5 0.3 -0.4
v -0.5 0.3 -0.7
v -0.5 0.4 0.3
v -0.5 0.4 0.1
v -0.5 0.4 -0.4
v -0.5 0.4 -0.7
v -0.5 0.5 0.7
v -0.5 0.5 0.6
v -0.5 0.5 0.5
v -0.5 0.6 0.8
v -0.5 0.6 0.7
v -0.5 0.6 0.6
v -0.5 0.6 0.5
v -0.5 0.6 0.4
v -0.5 0.7 0.7
v -0.5 0.7 0.6
v -0.5 0.7 0.4
v -0.5 0.7 0.3
v -0.5 0.7 -0.6
v -0.5 0.7 -0.7
v -0.5 0.8 0.2
v -0.5 0.8 0.1
v -0.5 0.8 -0.6
v -0.5 0.9 0.3
v -0.5 0.9 0.2
v -0.5 1.1 0.7
v -0.5 1.1 0.6
v -0.5 1.1 0.4
v -0.5 1.1 0.3
v -0.5 1.2 0.8
v -0.5 1.2 0.7
v -0.5 1.2 0.6
v -0.5 1.2 0.4
v -0.5 1.2 0.3
v -0.5 1.3 0.7
v -0.5 1.3 0.4
v -0.4 0.3 0.3
v -0.4 0.3 0.2
v -0.4 0.3 -0.4
v -0.4 0.4 0.3
v -0.4 0.4 0.2
v -0.4 0.4 0.1
v -0.4 0.4 -0.4
v -0.4 0.5 0.8
v -0.4 0.5 0.7
v -0.4 0.6 0.8
v -0.4 0.6 0.7
v -0.4 0.7 -0.6
v -0.4 0.7 -0.7
v -0.4 0.8 0.2
v -0.4 0.8 0.1
v -0.4 0.8 0
v -0.4 0.8 -0.6
v -0.4 0.8 -0.7
v -0.4 0.9 0.3
v -0.4 0.9 0.2
v -0.4 0.9 0.1
v -0.4 0.9 0
v -0.4 0.9 -0.6
v -0.4 1 0.3
v -0.4 1 0.2
v -0.4 1 0.1
v -0.4 1.2 0.8
v -0.4 1.2 0.7
v -0.4 1.2 0.4
v -0.4 1.2 0.3
v -0.4 1.2 0.2
v -0.4 1.3 0.8
v -0.4 1.3 0.7
v -0.4 1.3 0.6
v -0.4 1.3 0.5
v -0.4 1.3 0.4
v -0.4 1.3 0.3
v -0.4 1.4 0.6
v -0.4 1.4 0.5
v -0.3 0.6 1
v -0.3 0.6 0.8
v -0.3 0.8 0.8
v -0.3 0.8 -0.6
v -0.3 0.8 -0.7
v -0.3 0.9 1
v -0.3 0.9 0.8
v -0.3 0.9 -0.6
v -0.3 0.9 -0.7
v -0.2 0.4 0.7
v -0.2 0.4 0.6
v -0.2 0.5 0.7
v -0.2 0.5 0.6
v -0.2 0.7 -0.7
v -0.2 0.7 -0.8
v -0.2 0.9 -0.6
v -0.2 0.9 -0.7
v -0.2 1 -0.6
v -0.2 1 -0.8
v 0.1 0.3 0.6
v 0.1 0.3 0.5
v 0.1 0.4 0.6
v 0.1 0.4 0.5
v 0.1 1.3 0.6
v 0.1 1.3 0.5
v 0.1 1.4 0.6
v 0.1 1.4 0.5
v -0.2 0.3 0.6
v -0.2 0.3 0.5
v -0.2 0.4 0.6
v -0.2 0.4 0.5
v -0.2 1.3 0.6
v -0.2 1.3 0.5
v -0.2 1.4 0.6
v -0.2 1.4 0.5
v 0.1 0.4 0.7
v 0.1 0.4 0.6
v 0.1 0.5 0.7
v 0.1 0.5 0.6
v 0.1 0.7 -0.7
v 0.1 0.7 -0.8
v 0.1 0.9 -0.6
v 0.1 0.9 -0.7
v 0.1 1 -0.6
v 0.1 1 -0.8
v 0.2 0.6 1
v 0.2 0.6 0.8
v 0.2 0.8 0.8
v 0.2 0.8 -0.6
v 0.2 0.8 -0.7
v 0.2 0.9 1
v 0.2 0.9 0.8
v 0.2 0.9 -0.6
v 0.2 0.9 -0.7
v 0.3 0.3 0.3
v 0.3 0.3 0.2
v 0.3 0.3 -0.4
v 0.3 0.4 0.3
v 0.3 0.4 0.2
v 0.3 0.4 0.1
v 0.3 0.4 -0.4
v 0.3 0.5 0.8
v 0.3 0.5 0.7
v 0.3 0.6 0.8
v 0.3 0.6 0.7
v 0.3 0.7 -0.6
v 0.3 0.7 -0.7
v 0.3 0.8 0.2
v 0.3 0.8 0.1
v 0.3 0.8 0
v 0.3 0.8 -0.6
v 0.3 0.8 -0.7
v 0.3 0.9 0.3
v 0.3 0.9 0.2
v 0.3 0.9 0.1
v 0.3 0.9 0
v 0.3 0.9 -0.6
v 0.3 1 0.3
v 0.3 1 0.2
v 0.3 1 0.1
v 0.3 1.2 0.8
v 0.3 1.2 0.7
v 0.3 1.2 0.4
v 0.3 1.2 0.3
v 0.3 1.2 0.2
v 0.3 1.3 0.8
v 0.3 1.3 0.7
v 0.3 1.3 0.6
v 0.3 1.3 0.5
v 0.3 1.3 0.4
v 0.3 1.3 0.3
v 0.3 1.4 0.6
v 0.3 1.4 0.5
v 0.4 0.3 0.6
v 0.4 0.3 0.3
v 0.4 0.3 -0.4
v 0.4 0.3 -0.7
v 0.4 0.4 0.3
v 0.4 0.4 0.1
v 0.4 0.4 -0.4
v 0.4 0.4 -0.7
v 0.4 0.5 0.7
v 0.4 0.5 0.6
v 0.4 0.5 0.5
v 0.4 0.6 0.8
v 0.4 0.6 0.7
v 0.4 0.6 0.6
v 0.4 0.6 0.5
v 0.4 0.6 0.4
v 0.4 0.7 0.7
v 0.4 0.7 0.6
v 0.4 0.7 0.4
v 0.4 0.7 0.3
v 0.4 0.7 -0.6
v 0.4 0.7 -0.7
v 0.4 0.8 0.2
v 0.4 0.8 0.1
v 0.4 0.8 -0.6
v 0.4 0.9 0.3
v 0.4 0.9 0.2
v 0.4 1.1 0.7
v 0.4 1.1 0.6
v 0.4 1.1 0.4
v 0.4 1.1 0.3
v 0.4 1.2 0.8
v 0.4 1.2 0.7
v 0.4 1.2 0.6
v 0.4 1.2 0.4
v 0.4 1.2 0.3
v 0.4 1.3 0.7
v 0.4 1.3 0.4
v 0.5 0.6 0.6
v 0.5 0.6 0.4
v 0.5 0.7 0.7
v 0.5 0.7 0.6
v 0.5 0.7 0.4
v 0.5 0.7 0.3
v 0.5 1.1 0.7
v 0.5 1.1 0.6
v 0.5 1.1 0.4
v 0.5 1.1 0.3
v 0.5 1.2 0.6
v 0.5 1.2 0.4
v -0.3 0.6 1
v -0.3 0.9 1
v -0.2 0.8 1
v -0.2 0.9 1
v -0.1 0.7 1
v -0.1 0.8 1
v -5.96046e-008 0.7 1
v -5.96046e-008 0.8 1
v 0.1 0.8 1
v 0.1 0.9 1
v 0.2 0.6 1
v 0.2 0.9 1
v -0.5 0.6 0.8
v -0.5 1.2 0.8
v -0.4 0.5 0.8
v -0.4 0.6 0.8
v -0.4 0.8 0.8
v -0.4 1 0.8
v -0.4 1.2 0.8
v -0.4 1.3 0.8
v -0.3 0.6 0.8
v -0.3 0.8 0.8
v -0.3 0.9 0.8
v -0.3 1 0.8
v -0.3 1.1 0.8
v -0.2 0.9 0.8
v -0.2 1 0.8
v -0.1 0.9 0.8
v -0.1 1.1 0.8
v -5.96046e-008 0.9 0.8
v -5.96046e-008 1.1 0.8
v 0.1 0.9 0.8
v 0.1 1 0.8
v 0.2 0.6 0.8
v 0.2 0.8 0.8
v 0.2 0.9 0.8
v 0.2 1 0.8
v 0.2 1.1 0.8
v 0.3 0.5 0.8
v 0.3 0.6 0.8
v 0.3 0.8 0.8
v 0.3 1 0.8
v 0.3 1.2 0.8
v 0.3 1.3 0.8
v 0.4 0.6 0.8
v 0.4 1.2 0.8
v -0.6 0.7 0.7
v -0.6 1.1 0.7
v -0.5 0.5 0.7
v -0.5 0.6 0.7
v -0.5 0.7 0.7
v -0.5 1.1 0.7
v -0.5 1.2 0.7
v -0.5 1.3 0.7
v -0.4 0.5 0.7
v -0.4 0.6 0.7
v -0.4 1.2 0.7
v -0.4 1.3 0.7
v -0.2 0.4 0.7
v -0.2 0.5 0.7
v 0.1 0.4 0.7
v 0.1 0.5 0.7
v 0.3 0.5 0.7
v 0.3 0.6 0.7
v 0.3 1.2 0.7
v 0.3 1.3 0.7
v 0.4 0.5 0.7
v 0.4 0.6 0.7
v 0.4 0.7 0.7
v 0.4 1.1 0.7
v 0.4 1.2 0.7
v 0.4 1.3 0.7
v 0.5 0.7 0.7
v 0.5 1.1 0.7
v -0.6 0.6 0.6
v -0.6 0.7 0.6
v -0.6 1.1 0.6
v -0.6 1.2 0.6
v -0.5 0.3 0.6
v -0.5 0.5 0.6
v -0.5 0.6 0.6
v -0.5 0.7 0.6
v -0.5 1.1 0.6
v -0.5 1.2 0.6
v -0.4 1.3 0.6
v -0.4 1.4 0.6
v -0.2 0.3 0.6
v -0.2 0.4 0.6
v -0.2 0.5 0.6
v -0.2 1.3 0.6
v -0.2 1.4 0.6
v 0.1 0.3 0.6
v 0.1 0.4 0.6
v 0.1 0.5 0.6
v 0.1 1.3 0.6
v 0.1 1.4 0.6
v 0.3 1.3 0.6
v 0.3 1.4 0.6
v 0.4 0.3 0.6
v 0.4 0.5 0.6
v 0.4 0.6 0.6
v 0.4 0.7 0.6
v 0.4 1.1 0.6
v 0.4 1.2 0.6
v 0.5 0.6 0.6
v 0.5 0.7 0.6
v 0.5 1.1 0.6
v 0.5 1.2 0.6
v -0.2 0.3 0.5
v -0.2 0.4 0.5
v 0.1 0.3 0.5
v 0.1 0.4 0.5
v -0.5 0.3 -0.4
v -0.5 0.4 -0.4
v -0.4 0.3 -0.4
v -0.4 0.4 -0.4
v 0.3 0.3 -0.4
v 0.3 0.4 -0.4
v 0.4 0.3 -0.4
v 0.4 0.4 -0.4
v -0.2 0.9 -0.6
v -0.2 1 -0.6
v 0.1 0.9 -0.6
v 0.1 1 -0.6
v -0.4 1.3 0.5
v -0.4 1.4 0.5
v -0.2 1.3 0.5
v -0.2 1.4 0.5
v 0.1 1.3 0.5
v 0.1 1.4 0.5
v 0.3 1.3 0.5
v 0.3 1.4 0.5
v -0.6 0.6 0.4
v -0.6 0.7 0.4
v -0.6 1.1 0.4
v -0.6 1.2 0.4
v -0.5 0.6 0.4
v -0.5 0.7 0.4
v -0.5 1.1 0.4
v -0.5 1.2 0.4
v -0.5 1.3 0.4
v -0.4 1.2 0.4
v -0.4 1.3 0.4
v 0.3 1.2 0.4
v 0.3 1.3 0.4
v 0.4 0.6 0.4
v 0.4 0.7 0.4
v 0.4 1.1 0.4
v 0.4 1.2 0.4
v 0.4 1.3 0.4
v 0.5 0.6 0.4
v 0.5 0.7 0.4
v 0.5 1.1 0.4
v 0.5 1.2 0.4
v -0.6 0.7 0.3
v -0.6 1.1 0.3
v -0.5 0.3 0.3
v -0.5 0.4 0.3
v -0.5 0.7 0.3
v -0.5 0.9 0.3
v -0.5 1.1 0.3
v -0.5 1.2 0.3
v -0.4 0.3 0.3
v -0.4 0.4 0.3
v -0.4 0.9 0.3
v -0.4 1 0.3
v -0.4 1.2 0.3
v -0.4 1.3 0.3
v 0.3 0.3 0.3
v 0.3 0.4 0.3
v 0.3 0.9 0.3
v 0.3 1 0.3
v 0.3 1.2 0.3
v 0.3 1.3 0.3
v 0.4 0.3 0.3
v 0.4 0.4 0.3
v 0.4 0.7 0.3
v 0.4 0.9 0.3
v 0.4 1.1 0.3
v 0.4 1.2 0.3
v 0.5 0.7 0.3
v 0.5 1.1 0.3
v -0.5 0.8 0.2
v -0.5 0.9 0.2
v -0.4 0.8 0.2
v -0.4 0.9 0.2
v -0.4 1 0.2
v -0.4 1.2 0.2
v 0.3 0.8 0.2
v 0.3 0.9 0.2
v 0.3 1 0.2
v 0.3 1.2 0.2
v 0.4 0.8 0.2
v 0.4 0.9 0.2
v -0.4 0.9 0.1
v -0.4 1 0.1
v 0.3 0.9 0.1
v 0.3 1 0.1
v -0.5 0.7 -0.6
v -0.5 0.8 -0.6
v -0.4 0.7 -0.6
v -0.4 0.8 -0.6
v -0.4 0.9 -0.6
v -0.3 0.8 -0.6
v -0.3 0.9 -0.6
v 0.2 0.8 -0.6
v 0.2 0.9 -0.6
v 0.3 0.7 -0.6
v 0.3 0.8 -0.6
v 0.3 0.9 -0.6
v 0.4 0.7 -0.6
v 0.4 0.8 -0.6
v -0.5 0.3 -0.7
v -0.5 0.4 -0.7
v -0.5 0.7 -0.7
v -0.4 0.7 -0.7
v -0.4 0.8 -0.7
v -0.3 0.8 -0.7
v -0.3 0.9 -0.7
v -0.2 0.3 -0.7
v -0.2 0.4 -0.7
v -0.2 0.7 -0.7
v -0.2 0.9 -0.7
v 0.1 0.3 -0.7
v 0.1 0.4 -0.7
v 0.1 0.7 -0.7
v 0.1 0.9 -0.7
v 0.2 0.8 -0.7
v 0.2 0.9 -0.7
v 0.3 0.7 -0.7
v 0.3 0.8 -0.7
v 0.4 0.3 -0.7
v 0.4 0.4 -0.7
v 0.4 0.7 -0.7
v -0.2 0.7 -0.8
v -0.2 1 -0.8
v 0.1 0.7 -0.8
v 0.1 1 -0.8
v -0.5 0.3 0.6
v -0.2 0.3 0.6
v 0.1 0.3 0.6
v 0.4 0.3 0.6
v -0.2 0.3 0.5
v 0.1 0.3 0.5
v -0.5 0.3 0.3
v -0.4 0.3 0.3
v 0.3 0.3 0.3
v 0.4 0.3 0.3
v -0.4 0.3 0.2
v 0.3 0.3 0.2
v -0.5 0.3 -0.4
v -0.4 0.3 -0.4
v -0.2 0.3 -0.4
v 0.1 0.3 -0.4
v 0.3 0.3 -0.4
v 0.4 0.3 -0.4
v -0.5 0.3 -0.7
v -0.2 0.3 -0.7
v 0.1 0.3 -0.7
v 0.4 0.3 -0.7
v -0.2 0.4 0.7
v 0.1 0.4 0.7
v -0.2 0.4 0.6
v 0.1 0.4 0.6
v -0.2 0.4 0.5
v 0.1 0.4 0.5
v -0.5 0.4 0.3
v -0.4 0.4 0.3
v 0.3 0.4 0.3
v 0.4 0.4 0.3
v -0.4 0.4 0.2
v 0.3 0.4 0.2
v -0.5 0.4 0.1
v -0.4 0.4 0.1
v 0.3 0.4 0.1
v 0.4 0.4 0.1
v -0.5 0.4 -0.4
v -0.4 0.4 -0.4
v 0.3 0.4 -0.4
v 0.4 0.4 -0.4
v -0.4 0.5 0.8
v 0.3 0.5 0.8
v -0.5 0.5 0.7
v -0.4 0.5 0.7
v -0.2 0.5 0.7
v 0.1 0.5 0.7
v 0.3 0.5 0.7
v 0.4 0.5 0.7
v -0.5 0.5 0.6
v -0.2 0.5 0.6
v 0.1 0.5 0.6
v 0.4 0.5 0.6
v -0.3 0.6 1
v 0.2 0.6 1
v -0.5 0.6 0.8
v -0.4 0.6 0.8
v -0.3 0.6 0.8
v 0.2 0.6 0.8
v 0.3 0.6 0.8
v 0.4 0.6 0.8
v -0.5 0.6 0.7
v -0.4 0.6 0.7
v 0.3 0.6 0.7
v 0.4 0.6 0.7
v -0.6 0.6 0.6
v -0.5 0.6 0.6
v 0.4 0.6 0.6
v 0.5 0.6 0.6
v -0.5 0.6 0.5
v 0.4 0.6 0.5
v -0.6 0.6 0.4
v -0.5 0.6 0.4
v 0.4 0.6 0.4
v 0.5 0.6 0.4
v -0.6 0.7 0.7
v -0.5 0.7 0.7
v 0.4 0.7 0.7
v 0.5 0.7 0.7
v -0.6 0.7 0.6
v -0.5 0.7 0.6
v 0.4 0.7 0.6
v 0.5 0.7 0.6
v -0.6 0.7 0.4
v -0.5 0.7 0.4
v 0.4 0.7 0.4
v 0.5 0.7 0.4
v -0.6 0.7 0.3
v -0.5 0.7 0.3
v 0.4 0.7 0.3
v 0.5 0.7 0.3
v -0.2 0.7 -0.7
v 0.1 0.7 -0.7
v -0.2 0.7 -0.8
v 0.1 0.7 -0.8
v -0.5 0.7 -0.6
v -0.4 0.7 -0.6
v 0.3 0.7 -0.6
v 0.4 0.7 -0.6
v -0.5 0.7 -0.7
v -0.4 0.7 -0.7
v 0.3 0.7 -0.7
v 0.4 0.7 -0.7
v -0.5 0.8 0.2
v -0.4 0.8 0.2
v 0.3 0.8 0.2
v 0.4 0.8 0.2
v -0.5 0.8 0.1
v -0.4 0.8 0.1
v 0.3 0.8 0.1
v 0.4 0.8 0.1
v -0.4 0.8 0
v 0.3 0.8 0
v -0.5 0.8 -0.6
v -0.4 0.8 -0.6
v -0.3 0.8 -0.6
v 0.2 0.8 -0.6
v 0.3 0.8 -0.6
v 0.4 0.8 -0.6
v -0.4 0.8 -0.7
v -0.3 0.8 -0.7
v 0.2 0.8 -0.7
v 0.3 0.8 -0.7
v -0.3 0.9 1
v -0.2 0.9 1
v 0.1 0.9 1
v 0.2 0.9 1
v -0.2 0.9 0.9
v 0.1 0.9 0.9
v -0.3 0.9 0.8
v -0.2 0.9 0.8
v -0.1 0.9 0.8
v -5.96046e-008 0.9 0.8
v 0.1 0.9 0.8
v 0.2 0.9 0.8
v -0.5 0.9 0.3
v -0.4 0.9 0.3
v 0.3 0.9 0.3
v 0.4 0.9 0.3
v -0.5 0.9 0.2
v -0.4 0.9 0.2
v 0.3 0.9 0.2
v 0.4 0.9 0.2
v -0.4 0.9 0.1
v 0.3 0.9 0.1
v -0.4 0.9 0
v 0.3 0.9 0
v -0.4 0.9 -0.6
v -0.3 0.9 -0.6
v -0.2 0.9 -0.6
v 0.1 0.9 -0.6
v 0.2 0.9 -0.6
v 0.3 0.9 -0.6
v -0.3 0.9 -0.7
v -0.2 0.9 -0.7
v 0.1 0.9 -0.7
v 0.2 0.9 -0.7
v -0.4 1 0.2
v 0.3 1 0.2
v -0.4 1 0.1
v 0.3 1 0.1
v -0.2 1 -0.6
v 0.1 1 -0.6
v -0.2 1 -0.8
v 0.1 1 -0.8
v -0.6 1.1 0.7
v -0.5 1.1 0.7
v 0.4 1.1 0.7
v 0.5 1.1 0.7
v -0.6 1.1 0.6
v -0.5 1.1 0.6
v 0.4 1.1 0.6
v 0.5 1.1 0.6
v -0.6 1.1 0.4
v -0.5 1.1 0.4
v 0.4 1.1 0.4
v 0.5 1.1 0.4
v -0.6 1.1 0.3
v -0.5 1.1 0.3
v 0.4 1.1 0.3
v 0.5 1.1 0.3
v -0.5 1.2 0.8
v -0.4 1.2 0.8
v 0.3 1.2 0.8
v 0.4 1.2 0.8
v -0.5 1.2 0.7
v -0.4 1.2 0.7
v 0.3 1.2 0.7
v 0.4 1.2 0.7
v -0.6 1.2 0.6
v -0.5 1.2 0.6
v 0.4 1.2 0.6
v 0.5 1.2 0.6
v -0.6 1.2 0.4
v -0.5 1.2 0.4
v -0.4 1.2 0.4
v 0.3 1.2 0.4
v 0.4 1.2 0.4
v 0.5 1.2 0.4
v -0.5 1.2 0.3
v -0.4 1.2 0.3
v 0.3 1.2 0.3
v 0.4 1.2 0.3
v -0.4 1.2 0.2
v 0.3 1.2 0.2
v -0.4 1.3 0.8
v 0.3 1.3 0.8
v -0.5 1.3 0.7
v -0.4 1.3 0.7
v 0.3 1.3 0.7
v 0.4 1.3 0.7
v -0.4 1.3 0.6
v -0.2 1.3 0.6
v 0.1 1.3 0.6
v 0.3 1.3 0.6
v -0.4 1.3 0.5
v -0.2 1.3 0.5
v 0.1 1.3 0.5
v 0.3 1.3 0.5
v -0.5 1.3 0.4
v -0.4 1.3 0.4
v 0.3 1.3 0.4
v 0.4 1.3 0.4
v -0.4 1.3 0.3
v 0.3 1.3 0.3
v -0.4 1.4 0.6
v -0.2 1.4 0.6
v 0.1 1.4 0.6
v 0.3 1.4 0.6
v -0.4 1.4 0.5
v -0.2 1.4 0.5
v 0.1 1.4 0.5
v 0.3 1.4 0.5

# faces
f 4/1/1 2/1/1 1/1/1
f 5/1/1 2/1/1 4/1/1
f 7/1/1 4/1/1 3/1/1
f 7/1/1 6/1/1 5/1/1
f 7/1/1 5/1/1 4/1/1
f 8/1/1 6/1/1 7/1/1
f 9/1/1 6/1/1 8/1/1
f 10/1/1 6/1/1 9/1/1
f 11/1/1 9/1/1 8/1/1
f 12/1/1 9/1/1 11/1/1
f 17/3/1 14/3/1 13/3/1
f 19/3/1 16/3/1 15/3/1
f 20/3/1 16/3/1 19/3/1
f 22/3/1 18/3/1 17/3/1
f 22/3/1 17/3/1 13/3/1
f 23/3/1 18/3/1 22/3/1
f 25/1/1 22/1/1 21/1/1
f 25/1/1 23/1/1 22/1/1
f 26/1/1 23/1/1 25/1/1
f 27/3/1 18/3/1 23/3/1
f 27/1/1 23/1/1 26/1/1
f 28/3/1 18/3/1 27/3/1
f 29/1/1 26/1/1 25/1/1
f 29/1/1 25/1/1 24/1/1
f 30/1/1 26/1/1 29/1/1
f 31/3/1 18/3/1 28/3/1
f 32/3/1 18/3/1 31/3/1
f 33/1/1 20/1/1 19/1/1
f 33/1/1 19/1/1 18/1/1
f 34/1/1 20/1/1 33/1/1
f 35/3/1 18/3/1 32/3/1
f 36/1/1 33/1/1 18/1/1
f 36/3/1 18/3/1 35/3/1
f 37/1/1 33/1/1 36/1/1
f 38/3/1 35/3/1 32/3/1
f 39/3/1 35/3/1 38/3/1
f 40/1/1 29/1/1 24/1/1
f 44/1/1 40/1/1 24/1/1
f 44/1/1 41/1/1 40/1/1
f 45/1/1 41/1/1 44/1/1
f 46/1/1 41/1/1 45/1/1
f 47/1/1 43/1/1 42/1/1
f 48/1/1 43/1/1 47/1/1
f 49/1/1 46/1/1 45/1/1
f 49/1/1 47/1/1 46/1/1
f 50/1/1 47/1/1 49/1/1
f 54/3/1 52/3/1 51/3/1
f 55/1/1 53/1/1 52/1/1
f 55/3/1 52/3/1 54/3/1
f 56/1/1 53/1/1 55/1/1
f 57/1/1 53/1/1 56/1/1
f 60/1/1 59/1/1 58/1/1
f 61/1/1 59/1/1 60/1/1
f 67/1/1 63/1/1 62/1/1
f 68/1/1 63/1/1 67/1/1
f 70/3/1 66/3/1 65/3/1
f 70/3/1 65/3/1 64/3/1
f 71/3/1 66/3/1 70/3/1
f 72/1/1 67/1/1 66/1/1
f 72/3/1 66/3/1 71/3/1
f 73/1/1 67/1/1 72/1/1
f 74/3/1 71/3/1 70/3/1
f 74/3/1 70/3/1 69/3/1
f 75/3/1 71/3/1 74/3/1
f 76/3/1 71/3/1 75/3/1
f 80/1/1 75/1/1 74/1/1
f 81/1/1 75/1/1 80/1/1
f 82/1/1 78/1/1 77/1/1
f 83/1/1 78/1/1 82/1/1
f 86/1/1 80/1/1 79/1/1
f 87/1/1 80/1/1 86/1/1
f 88/3/1 85/3/1 84/3/1
f 89/3/1 85/3/1 88/3/1
f 92/1/1 91/1/1 90/1/1
f 95/1/1 92/1/1 90/1/1
f 96/1/1 92/1/1 95/1/1
f 97/1/1 94/1/1 93/1/1
f 98/1/1 94/1/1 97/1/1
f 101/3/1 100/3/1 99/3/1
f 102/3/1 100/3/1 101/3/1
f 106/1/1 104/1/1 103/1/1
f 107/1/1 106/1/1 105/1/1
f 108/1/1 104/1/1 106/1/1
f 108/1/1 106/1/1 107/1/1
f 111/3/1 110/3/1 109/3/1
f 112/3/1 110/3/1 111/3/1
f 115/3/1 114/3/1 113/3/1
f 116/3/1 114/3/1 115/3/1
f 117/3/2 118/3/2 119/3/2
f 119/3/2 118/3/2 120/3/2
f 121/3/2 122/3/2 123/3/2
f 123/3/2 122/3/2 124/3/2
f 125/3/2 126/3/2 127/3/2
f 127/3/2 126/3/2 128/3/2
f 129/1/2 130/1/2 132/1/2
f 131/1/2 132/1/2 133/1/2
f 132/1/2 130/1/2 134/1/2
f 133/1/2 132/1/2 134/1/2
f 135/1/2 136/1/2 137/1/2
f 135/1/2 137/1/2 140/1/2
f 140/1/2 137/1/2 141/1/2
f 138/1/2 139/1/2 142/1/2
f 142/1/2 139/1/2 143/1/2
f 144/3/2 145/3/2 147/3/2
f 145/1/2 146/1/2 148/1/2
f 147/3/2 145/3/2 148/3/2
f 148/1/2 146/1/2 149/1/2
f 149/1/2 146/1/2 150/1/2
f 151/1/2 152/1/2 153/1/2
f 153/1/2 152/1/2 154/1/2
f 155/1/2 156/1/2 160/1/2
f 160/1/2 156/1/2 161/1/2
f 158/3/2 159/3/2 163/3/2
f 157/3/2 158/3/2 163/3/2
f 163/3/2 159/3/2 164/3/2
f 159/1/2 160/1/2 165/1/2
f 164/3/2 159/3/2 165/3/2
f 165/1/2 160/1/2 166/1/2
f 163/3/2 164/3/2 167/3/2
f 162/3/2 163/3/2 167/3/2
f 167/3/2 164/3/2 168/3/2
f 168/3/2 164/3/2 169/3/2
f 167/1/2 168/1/2 173/1/2
f 173/1/2 168/1/2 174/1/2
f 170/1/2 171/1/2 175/1/2
f 175/1/2 171/1/2 176/1/2
f 172/1/2 173/1/2 179/1/2
f 179/1/2 173/1/2 180/1/2
f 177/3/2 178/3/2 181/3/2
f 181/3/2 178/3/2 182/3/2
f 183/3/2 184/3/2 187/3/2
f 185/3/2 186/3/2 189/3/2
f 189/3/2 186/3/2 190/3/2
f 187/3/2 188/3/2 192/3/2
f 183/3/2 187/3/2 192/3/2
f 192/3/2 188/3/2 193/3/2
f 191/1/2 192/1/2 195/1/2
f 192/1/2 193/1/2 195/1/2
f 195/1/2 193/1/2 196/1/2
f 193/3/2 188/3/2 197/3/2
f 196/1/2 193/1/2 197/1/2
f 197/3/2 188/3/2 198/3/2
f 195/1/2 196/1/2 199/1/2
f 194/1/2 195/1/2 199/1/2
f 199/1/2 196/1/2 200/1/2
f 198/3/2 188/3/2 201/3/2
f 201/3/2 188/3/2 202/3/2
f 189/1/2 190/1/2 203/1/2
f 188/1/2 189/1/2 203/1/2
f 203/1/2 190/1/2 204/1/2
f 202/3/2 188/3/2 205/3/2
f 188/1/2 203/1/2 206/1/2
f 205/3/2 188/3/2 206/3/2
f 206/1/2 203/1/2 207/1/2
f 202/3/2 205/3/2 208/3/2
f 208/3/2 205/3/2 209/3/2
f 194/1/2 199/1/2 210/1/2
f 194/1/2 210/1/2 214/1/2
f 210/1/2 211/1/2 214/1/2
f 214/1/2 211/1/2 215/1/2
f 215/1/2 211/1/2 216/1/2
f 212/1/2 213/1/2 217/1/2
f 217/1/2 213/1/2 218/1/2
f 215/1/2 216/1/2 219/1/2
f 216/1/2 217/1/2 219/1/2
f 219/1/2 217/1/2 220/1/2
f 221/1/2 222/1/2 224/1/2
f 224/1/2 222/1/2 225/1/2
f 223/1/2 224/1/2 227/1/2
f 225/1/2 226/1/2 227/1/2
f 224/1/2 225/1/2 227/1/2
f 227/1/2 226/1/2 228/1/2
f 228/1/2 226/1/2 229/1/2
f 229/1/2 226/1/2 230/1/2
f 228/1/2 229/1/2 231/1/2
f 231/1/2 229/1/2 232/1/2
f 235/1/3 234/1/3 233/1/3
f 236/1/3 234/1/3 235/1/3
f 237/1/3 235/1/3 233/1/3
f 238/3/3 236/3/3 235/3/3
f 238/1/3 235/1/3 237/1/3
f 239/1/3 237/1/3 233/1/3
f 239/3/3 238/3/3 237/3/3
f 240/3/3 236/3/3 238/3/3
f 240/3/3 238/3/3 239/3/3
f 241/1/3 240/1/3 239/1/3
f 241/3/3 236/3/3 240/3/3
f 242/3/3 236/3/3 241/3/3
f 243/1/3 239/1/3 233/1/3
f 243/1/3 241/1/3 239/1/3
f 243/1/3 242/1/3 241/1/3
f 244/1/3 242/1/3 243/1/3
f 248/1/3 246/1/3 245/1/3
f 249/1/3 246/1/3 248/1/3
f 250/1/3 246/1/3 249/1/3
f 251/1/3 246/1/3 250/1/3
f 253/1/3 248/1/3 247/1/3
f 253/1/3 249/1/3 248/1/3
f 254/3/3 250/3/3 249/3/3
f 254/1/3 249/1/3 253/1/3
f 255/3/3 250/3/3 254/3/3
f 256/1/3 252/1/3 251/1/3
f 256/3/3 250/3/3 255/3/3
f 256/1/3 251/1/3 250/1/3
f 257/1/3 252/1/3 256/1/3
f 258/2/3 256/2/3 255/2/3
f 259/3/3 257/3/3 256/3/3
f 259/2/3 256/2/3 258/2/3
f 260/3/3 259/3/3 258/3/3
f 261/1/3 252/1/3 257/1/3
f 261/3/3 259/3/3 260/3/3
f 261/3/3 257/3/3 259/3/3
f 262/1/3 261/1/3 260/1/3
f 263/1/3 252/1/3 261/1/3
f 263/1/3 261/1/3 262/1/3
f 264/3/3 263/3/3 262/3/3
f 265/3/3 263/3/3 264/3/3
f 266/1/3 253/1/3 247/1/3
f 268/2/3 265/2/3 264/2/3
f 269/3/3 263/3/3 265/3/3
f 269/2/3 265/2/3 268/2/3
f 270/1/3 252/1/3 263/1/3
f 270/3/3 263/3/3 269/3/3
f 271/1/3 267/1/3 266/1/3
f 271/1/3 266/1/3 247/1/3
f 272/1/3 267/1/3 271/1/3
f 273/3/3 268/3/3 267/3/3
f 273/1/3 267/1/3 272/1/3
f 273/3/3 269/3/3 268/3/3
f 274/1/3 270/1/3 269/1/3
f 274/3/3 269/3/3 273/3/3
f 275/1/3 252/1/3 270/1/3
f 275/1/3 270/1/3 274/1/3
f 276/1/3 252/1/3 275/1/3
f 277/1/3 274/1/3 273/1/3
f 277/1/3 275/1/3 274/1/3
f 277/1/3 273/1/3 272/1/3
f 278/1/3 275/1/3 277/1/3
f 283/1/3 280/1/3 279/1/3
f 284/1/3 280/1/3 283/1/3
f 287/1/3 282/1/3 281/1/3
f 288/1/3 282/1/3 287/1/3
f 289/1/3 286/1/3 285/1/3
f 290/1/3 286/1/3 289/1/3
f 293/3/3 292/3/3 291/3/3
f 294/3/3 292/3/3 293/3/3
f 299/1/3 296/1/3 295/1/3
f 300/1/3 296/1/3 299/1/3
f 303/1/3 298/1/3 297/1/3
f 304/1/3 298/1/3 303/1/3
f 305/1/3 302/1/3 301/1/3
f 306/1/3 302/1/3 305/1/3
f 313/1/3 308/1/3 307/1/3
f 314/1/3 308/1/3 313/1/3
f 315/1/3 310/1/3 309/1/3
f 316/1/3 310/1/3 315/1/3
f 319/3/3 312/3/3 311/3/3
f 320/3/3 312/3/3 319/3/3
f 321/3/3 312/3/3 320/3/3
f 322/3/3 318/3/3 317/3/3
f 323/3/3 318/3/3 322/3/3
f 329/3/3 328/3/3 327/3/3
f 330/3/3 328/3/3 329/3/3
f 331/3/3 325/3/3 324/3/3
f 331/3/3 326/3/3 325/3/3
f 332/3/3 326/3/3 331/3/3
f 337/1/3 334/1/3 333/1/3
f 338/1/3 334/1/3 337/1/3
f 339/1/3 336/1/3 335/1/3
f 340/1/3 336/1/3 339/1/3
f 343/3/3 342/3/3 341/3/3
f 344/3/3 342/3/3 343/3/3
f 347/3/3 346/3/3 345/3/3
f 348/3/3 346/3/3 347/3/3
f 351/3/3 350/3/3 349/3/3
f 352/3/3 350/3/3 351/3/3
f 355/1/3 354/1/3 353/1/3
f 356/1/3 354/1/3 355/1/3
f 357/3/4 358/3/4 359/3/4
f 359/3/4 358/3/4 360/3/4
f 361/3/4 362/3/4 363/3/4
f 363/3/4 362/3/4 364/3/4
f 365/1/4 366/1/4 369/1/4
f 369/1/4 366/1/4 370/1/4
f 367/1/4 368/1/4 371/1/4
f 371/1/4 368/1/4 372/1/4
f 372/1/4 373/1/4 374/1/4
f 374/1/4 373/1/4 375/1/4
f 376/1/4 377/1/4 381/1/4
f 381/1/4 377/1/4 382/1/4
f 378/1/4 379/1/4 383/1/4
f 383/1/4 379/1/4 384/1/4
f 380/1/4 381/1/4 385/1/4
f 385/1/4 381/1/4 386/1/4
f 387/1/4 388/1/4 391/1/4
f 391/1/4 388/1/4 392/1/4
f 392/1/4 388/1/4 393/1/4
f 389/3/4 390/3/4 395/3/4
f 395/3/4 390/3/4 396/3/4
f 393/1/4 394/1/4 397/1/4
f 392/1/4 393/1/4 397/1/4
f 397/1/4 394/1/4 398/1/4
f 398/1/4 394/1/4 399/1/4
f 399/1/4 400/1/4 405/1/4
f 405/1/4 400/1/4 406/1/4
f 401/3/4 402/3/4 407/3/4
f 407/3/4 402/3/4 408/3/4
f 403/1/4 404/1/4 410/1/4
f 404/1/4 405/1/4 410/1/4
f 410/1/4 405/1/4 411/1/4
f 411/1/4 405/1/4 412/1/4
f 409/1/4 410/1/4 413/1/4
f 410/1/4 411/1/4 413/1/4
f 413/1/4 411/1/4 414/1/4
f 415/3/4 416/3/4 417/3/4
f 417/3/4 416/3/4 418/3/4
f 419/1/4 420/1/4 423/1/4
f 423/1/4 420/1/4 424/1/4
f 421/3/4 422/3/4 425/3/4
f 425/3/4 422/3/4 426/3/4
f 427/3/4 428/3/4 429/3/4
f 429/3/4 428/3/4 430/3/4
f 431/1/4 432/1/4 433/1/4
f 433/1/4 432/1/4 434/1/4
f 434/1/4 435/1/4 436/1/4
f 436/1/4 435/1/4 437/1/4
f 438/1/4 439/1/4 441/1/4
f 441/1/4 439/1/4 442/1/4
f 440/1/4 441/1/4 443/1/4
f 443/1/4 441/1/4 444/1/4
f 446/1/4 447/1/4 448/1/4
f 448/1/4 449/1/4 450/1/4
f 445/3/4 446/3/4 452/3/4
f 450/1/4 451/1/4 453/1/4
f 452/3/4 446/3/4 453/3/4
f 446/1/4 448/1/4 453/1/4
f 448/1/4 450/1/4 453/1/4
f 453/1/4 451/1/4 454/1/4
f 454/1/4 451/1/4 455/1/4
f 452/1/4 453/1/4 456/1/4
f 453/1/4 454/1/4 456/1/4
f 456/1/4 454/1/4 457/1/4
f 457/1/4 454/1/4 458/1/4
f 457/1/4 458/1/4 460/1/4
f 458/1/4 459/1/4 460/1/4
f 460/1/4 459/1/4 461/1/4
f 457/1/4 460/1/4 462/1/4
f 462/1/4 460/1/4 463/1/4
f 456/3/4 457/3/4 464/3/4
f 457/1/4 462/1/4 465/1/4
f 464/3/4 457/3/4 465/3/4
f 465/1/4 462/1/4 466/1/4
f 467/1/4 468/1/4 469/1/4
f 469/1/4 468/1/4 470/1/4
f 475/3/5 472/3/5 471/3/5
f 476/3/5 474/3/5 473/3/5
f 477/3/5 475/3/5 471/3/5
f 477/3/5 476/3/5 475/3/5
f 478/3/5 476/3/5 477/3/5
f 479/3/5 474/3/5 476/3/5
f 479/3/5 476/3/5 478/3/5
f 480/3/5 474/3/5 479/3/5
f 481/3/5 479/3/5 478/3/5
f 482/3/5 479/3/5 481/3/5
f 484/1/5 482/1/5 481/1/5
f 485/1/5 482/1/5 484/1/5
f 486/1/5 482/1/5 485/1/5
f 487/1/5 482/1/5 486/1/5
f 489/3/5 484/3/5 483/3/5
f 489/3/5 485/3/5 484/3/5
f 490/1/5 486/1/5 485/1/5
f 490/3/5 485/3/5 489/3/5
f 491/3/5 487/3/5 486/3/5
f 491/1/5 486/1/5 490/1/5
f 491/3/5 488/3/5 487/3/5
f 492/3/5 488/3/5 491/3/5
f 495/3/5 494/3/5 493/3/5
f 496/3/5 494/3/5 495/3/5
f 497/3/5 496/3/5 495/3/5
f 498/3/5 496/3/5 497/3/5
f 503/3/5 500/3/5 499/3/5
f 504/3/5 502/3/5 501/3/5
f 505/3/5 503/3/5 499/3/5
f 506/3/5 503/3/5 505/3/5
f 507/3/5 502/3/5 504/3/5
f 508/3/5 502/3/5 507/3/5
f 509/1/5 506/1/5 505/1/5
f 510/1/5 506/1/5 509/1/5
f 511/1/5 508/1/5 507/1/5
f 512/1/5 508/1/5 511/1/5
f 516/1/5 514/1/5 513/1/5
f 517/1/5 514/1/5 516/1/5
f 518/1/5 514/1/5 517/1/5
f 519/1/5 514/1/5 518/1/5
f 521/1/5 516/1/5 515/1/5
f 521/1/5 517/1/5 516/1/5
f 522/1/5 517/1/5 521/1/5
f 523/1/5 520/1/5 519/1/5
f 523/1/5 519/1/5 518/1/5
f 524/1/5 520/1/5 523/1/5
f 529/1/5 526/1/5 525/1/5
f 530/1/5 526/1/5 529/1/5
f 533/1/5 528/1/5 527/1/5
f 534/1/5 528/1/5 533/1/5
f 535/1/5 532/1/5 531/1/5
f 536/1/5 532/1/5 535/1/5
f 541/1/5 538/1/5 537/1/5
f 542/1/5 540/1/5 539/1/5
f 543/1/5 541/1/5 537/1/5
f 544/1/5 541/1/5 543/1/5
f 545/1/5 540/1/5 542/1/5
f 546/1/5 540/1/5 545/1/5
f 551/1/5 548/1/5 547/1/5
f 552/1/5 548/1/5 551/1/5
f 553/1/5 550/1/5 549/1/5
f 554/1/5 550/1/5 553/1/5
f 559/1/5 556/1/5 555/1/5
f 560/1/5 556/1/5 559/1/5
f 561/1/5 558/1/5 557/1/5
f 562/1/5 558/1/5 561/1/5
f 565/1/5 564/1/5 563/1/5
f 566/1/5 564/1/5 565/1/5
f 567/1/6 568/1/6 571/1/6
f 571/1/6 568/1/6 572/1/6
f 569/1/6 570/1/6 573/1/6
f 573/1/6 570/1/6 574/1/6
f 575/3/6 576/3/6 579/3/6
f 579/3/6 576/3/6 580/3/6
f 577/3/6 578/3/6 581/3/6
f 581/3/6 578/3/6 582/3/6
f 579/1/6 580/1/6 583/1/6
f 581/1/6 582/1/6 584/1/6
f 579/1/6 583/1/6 585/1/6
f 585/1/6 583/1/6 586/1/6
f 584/1/6 582/1/6 589/1/6
f 589/1/6 582/1/6 590/1/6
f 586/1/6 587/1/6 591/1/6
f 591/1/6 587/1/6 592/1/6
f 588/1/6 589/1/6 593/1/6
f 593/1/6 589/1/6 594/1/6
f 595/1/6 596/1/6 599/1/6
f 596/3/6 597/3/6 599/3/6
f 597/1/6 598/1/6 600/1/6
f 599/3/6 597/3/6 600/3/6
f 595/1/6 599/1/6 601/1/6
f 599/1/6 600/1/6 601/1/6
f 601/1/6 600/1/6 602/1/6
f 602/1/6 600/1/6 603/1/6
f 603/1/6 600/1/6 604/1/6
f 600/1/6 598/1/6 605/1/6
f 604/1/6 600/1/6 605/1/6
f 605/1/6 598/1/6 606/1/6
f 607/3/6 608/3/6 611/3/6
f 611/3/6 608/3/6 612/3/6
f 609/3/6 610/3/6 613/3/6
f 613/3/6 610/3/6 614/3/6
f 615/3/6 616/3/6 617/3/6
f 617/3/6 616/3/6 618/3/6
f 617/1/6 618/1/6 619/1/6
f 619/1/6 618/1/6 620/1/6
f 620/1/6 618/1/6 621/1/6
f 621/1/6 618/1/6 622/1/6
f 622/1/6 618/1/6 623/1/6
f 623/1/6 618/1/6 624/1/6
f 620/1/6 621/1/6 625/1/6
f 625/1/6 621/1/6 626/1/6
f 622/1/6 623/1/6 627/1/6
f 627/1/6 623/1/6 628/1/6
f 629/3/6 630/3/6 631/3/6
f 631/3/6 630/3/6 632/3/6
f 633/1/6 634/1/6 635/1/6
f 635/1/6 634/1/6 636/1/6
f 637/1/6 638/1/6 641/1/6
f 641/1/6 638/1/6 642/1/6
f 639/1/6 640/1/6 643/1/6
f 643/1/6 640/1/6 644/1/6
f 645/1/6 646/1/6 649/1/6
f 649/1/6 646/1/6 650/1/6
f 647/1/6 648/1/6 651/1/6
f 651/1/6 648/1/6 652/1/6
f 653/1/6 654/1/6 657/1/6
f 657/1/6 654/1/6 658/1/6
f 655/1/6 656/1/6 659/1/6
f 659/1/6 656/1/6 660/1/6
f 661/1/6 662/1/6 665/1/6
f 665/1/6 662/1/6 666/1/6
f 663/1/6 664/1/6 669/1/6
f 669/1/6 664/1/6 670/1/6
f 666/1/6 667/1/6 671/1/6
f 671/1/6 667/1/6 672/1/6
f 668/1/6 669/1/6 673/1/6
f 673/1/6 669/1/6 674/1/6
f 672/1/6 673/1/6 675/1/6
f 675/1/6 673/1/6 676/1/6
f 677/1/6 678/1/6 680/1/6
f 680/1/6 678/1/6 681/1/6
f 679/1/6 680/1/6 683/1/6
f 681/1/6 682/1/6 683/1/6
f 680/1/6 681/1/6 683/1/6
f 683/1/6 682/1/6 684/1/6
f 684/1/6 682/1/6 685/1/6
f 685/1/6 682/1/6 686/1/6
f 679/1/6 683/1/6 687/1/6
f 684/1/6 685/1/6 688/1/6
f 688/1/6 685/1/6 689/1/6
f 686/1/6 682/1/6 690/1/6
f 688/1/6 689/1/6 691/1/6
f 689/1/6 690/1/6 691/1/6
f 679/1/6 687/1/6 691/1/6
f 687/1/6 688/1/6 691/1/6
f 691/1/6 690/1/6 692/1/6
f 690/1/6 682/1/6 693/1/6
f 692/1/6 690/1/6 693/1/6
f 693/1/6 682/1/6 694/1/6
f 692/1/6 693/1/6 695/1/6
f 695/1/6 693/1/6 696/1/6
f 697/3/6 698/3/6 701/3/6
f 701/3/6 698/3/6 702/3/6
f 699/3/6 700/3/6 703/3/6
f 703/3/6 700/3/6 704/3/6
